<svg width="56" height="56" viewBox="0 0 56 56" fill="none" xmlns="http://www.w3.org/2000/svg">
<path d="M53.9902 32.6725L50.3169 36.3172H41.515C42.208 35.2065 42.7971 33.9568 43.213 32.6725H53.9902Z" fill="white"/>
<path d="M56.0002 27.9517L54.3715 29.7914H43.8022C43.8715 29.2013 43.9061 28.5765 43.9061 27.9517C43.9061 27.3616 43.8715 26.7368 43.8022 26.1814H54.1636L56.0002 27.9517Z" fill="white"/>
<path d="M53.9901 23.1615H43.1782C42.7623 21.8771 42.2079 20.6622 41.4802 19.5167H50.2821L53.9901 23.1615Z" fill="white"/>
<path d="M14.5196 36.3172H5.68291L2.00964 32.6725H12.8215C13.2374 33.9568 13.8265 35.2065 14.5196 36.3172Z" fill="white"/>
<path d="M12.198 29.7914H1.62871L0 27.9517L1.80198 26.1814H12.1634C12.0941 26.7715 12.0594 27.3616 12.0594 27.9517C12.0941 28.5765 12.1287 29.2013 12.198 29.7914Z" fill="white"/>
<path d="M5.68291 19.5167H14.4849C13.7918 20.6275 13.2027 21.8424 12.7869 23.1615H2.00964L5.68291 19.5167Z" fill="white"/>
<path d="M41.6185 22.2243C42.3809 23.9946 42.7967 25.9385 42.7967 27.9518C42.7967 29.9998 42.3809 31.9436 41.6185 33.7139C40.8908 35.4842 39.7819 37.081 38.4651 38.4C37.1482 39.7538 35.5542 40.8299 33.7868 41.5588C32.0195 42.2877 30.0789 42.7043 28.0344 42.7043C23.9799 42.7043 20.272 41.0728 17.6037 38.4C16.2868 37.081 15.1779 35.4842 14.4502 33.7139C13.6878 31.9436 13.272 29.9998 13.272 27.9518C13.272 25.9038 13.6878 23.9599 14.4502 22.2243C15.1779 20.454 16.2868 18.8573 17.6037 17.5382C18.9205 16.1845 20.5146 15.1084 22.2819 14.3795C24.0492 13.6505 25.9898 13.234 27.9997 13.234C30.0443 13.234 31.9849 13.6505 33.7175 14.3795C35.4849 15.1431 37.0789 16.2192 38.3957 17.5382C39.7819 18.8573 40.8561 20.454 41.6185 22.2243ZM40.6136 27.9518C40.6136 26.2162 40.267 24.55 39.6086 23.0574C38.9849 21.5648 38.0492 20.2111 36.9056 19.0656C35.7621 17.9201 34.4106 17.0176 32.9205 16.358C31.4304 15.7332 29.767 15.3514 28.0344 15.3514C26.3017 15.3514 24.6383 15.6985 23.1482 16.358C21.6581 16.9829 20.3066 17.9201 19.1631 19.0656C16.8759 21.3565 15.4898 24.4806 15.4898 27.9518C15.4898 29.6874 15.8363 31.3535 16.4947 32.8461C17.1185 34.3388 18.0542 35.6925 19.1977 36.838C20.3413 37.9835 21.6928 38.886 23.1829 39.5455C24.673 40.1703 26.3363 40.5174 28.069 40.5174C29.8017 40.5174 31.4651 40.1703 32.9552 39.5455C34.4453 38.9207 35.7967 37.9835 36.9403 36.838C38.0839 35.6925 38.9849 34.3388 39.6433 32.8461C40.267 31.3535 40.6136 29.6874 40.6136 27.9518Z" fill="white"/>
<path d="M28.0347 16.5662C34.307 16.5662 39.401 21.6689 39.401 27.9517C39.401 34.2345 34.307 39.3372 28.0347 39.3372C21.7624 39.3372 16.6683 34.2345 16.6683 27.9517C16.6683 21.6689 21.7624 16.5662 28.0347 16.5662ZM35.5545 30.7981C36.7327 30.0344 37.3911 28.5765 37.3911 26.2508C37.3911 21.044 31.3614 19.5167 28.3466 19.5167C24.5347 19.5167 18.7129 21.53 18.7129 27.5004C18.7129 28.7848 19.5446 29.7567 20.2376 30.3468C20.4802 30.5551 20.7921 30.8675 21.1386 30.7633C21.2079 30.5204 20.9654 30.4162 20.8614 30.2774C20.4802 29.8261 20.3763 28.993 20.7228 28.4029C21.2772 27.3963 22.6634 26.7715 23.9109 26.4244C26.5099 25.6607 30.2178 25.6607 32.7476 26.4938C33.9951 26.9103 35.3812 27.5699 35.7971 28.6459C36.2129 29.6526 35.5198 30.3121 35 30.7286C34.8614 30.8328 34.5842 30.9716 34.6188 31.2493C34.8961 31.2493 35.2773 30.9716 35.5545 30.7981ZM32.6436 35.2759C33.1287 34.3387 32.505 33.3667 32.0891 32.5336C31.6733 31.7353 31.1188 31.0063 31.2921 29.8955C31.3614 29.3054 31.7426 29.0278 31.7079 28.5071C31.604 27.188 29.0743 26.6674 27.7921 26.7715C26.3713 26.8409 24.4654 27.431 24.3961 28.5071C24.3614 29.0278 24.7426 29.3402 24.8119 29.9303C25.0198 31.8394 23.3911 32.7072 23.2525 34.2345C23.0792 36.3519 26.0248 36.4214 28.0347 36.3867C29.6634 36.3867 32.0891 36.3519 32.6436 35.2759Z" fill="white"/>
<path d="M41.9658 15.0041C42.3123 15.3513 42.1044 15.5942 41.8965 15.8372L40.545 17.2257C40.2678 17.5034 40.0252 17.5381 39.8173 17.3298C39.644 17.1563 39.644 16.9827 39.748 16.7744C39.8173 16.6703 40.0945 16.3579 39.9905 16.2885C39.9559 16.2538 39.8519 16.2885 39.4361 16.462C39.1935 16.5662 38.9856 16.5315 38.8123 16.3579C38.639 16.1843 38.6044 15.9761 38.7084 15.7331C38.8816 15.3165 38.9163 15.143 38.8816 15.1083C38.847 15.0736 38.743 15.1083 38.3965 15.386C38.1886 15.5595 37.946 15.4901 37.8074 15.386C37.5301 15.1083 37.7034 14.8653 37.9806 14.5529L39.2628 13.2338C39.54 12.9214 39.7826 12.852 40.0945 13.1644L40.3024 13.338C40.441 13.4768 40.6143 13.7198 40.441 14.0669L40.1985 14.5182C39.9905 14.9 39.8866 15.0736 39.9905 15.1777C40.1291 15.3165 40.4757 15.0389 41.0648 14.6917C41.3074 14.5529 41.5499 14.5529 41.7925 14.7959L41.9658 15.0041Z" fill="white"/>
<path d="M37.5298 11.2901C38.3268 11.7414 38.6041 12.748 38.1189 13.5811C37.5991 14.4489 36.6288 14.6919 35.7971 14.2059C35.0001 13.7199 34.6882 12.748 35.1734 11.9496C35.4159 11.5331 35.7625 11.2207 36.1437 11.1166C36.5595 10.9777 37.0447 11.0124 37.5298 11.2901ZM37.2872 13.1298C37.4952 12.748 37.5298 12.2273 37.0793 11.9496C36.7328 11.7414 36.2823 11.8802 36.0397 12.3315C35.7278 12.8522 35.8318 13.3034 36.213 13.5117C36.5942 13.7199 37.0447 13.5811 37.2872 13.1298Z" fill="white"/>
<path d="M34.4803 43.9192C35.3813 43.9192 36.0744 44.6481 35.9358 45.62C35.8318 46.6267 35.0001 47.3209 34.0645 47.3209C33.1288 47.3209 32.4704 46.592 32.5744 45.6894C32.6437 45.2035 32.817 44.7869 33.1288 44.4745C33.4754 44.1274 33.9259 43.9192 34.4803 43.9192ZM35.0348 45.62C35.0694 45.2035 34.8962 44.7175 34.3764 44.7175C33.9605 44.7175 33.614 45.0646 33.5793 45.5506C33.51 46.1754 33.7873 46.4878 34.2031 46.4878C34.619 46.4878 34.9655 46.1407 35.0348 45.62Z" fill="white"/>
<path d="M33.6136 9.55439C34.48 9.83208 34.9998 10.7346 34.6879 11.6718C34.376 12.6437 33.475 13.095 32.574 12.8173C31.673 12.5396 31.1879 11.6371 31.4651 10.7693C31.6037 10.2833 31.8809 9.93622 32.2275 9.72794C32.6087 9.45025 33.0938 9.38083 33.6136 9.55439ZM33.8215 11.3941C33.9602 10.9776 33.8562 10.4569 33.3364 10.318C32.9552 10.1792 32.5394 10.4222 32.4007 10.9081C32.2275 11.4982 32.4354 11.8801 32.8166 12.0189C33.2671 12.1231 33.6483 11.9148 33.8215 11.3941Z" fill="white"/>
<path d="M32.2974 43.8845C32.6439 43.8845 32.8172 44.0233 32.7825 44.2316C32.7479 44.5787 31.7776 45.3771 31.6043 45.863C31.535 46.0366 31.5004 46.5573 31.4657 46.7655C31.431 47.1127 31.1538 47.2515 30.8766 47.2515C30.1835 47.2515 30.3568 46.6614 30.4261 45.8977C30.4607 45.5159 29.5944 44.544 29.6291 44.1969C29.6637 44.0233 29.8023 43.8498 30.1835 43.8498C30.4261 43.8498 30.634 43.9192 30.7726 44.0927C30.8766 44.2316 31.0152 44.544 31.1538 44.544C31.3271 44.544 31.3617 44.4051 31.6043 44.1622C31.7776 44.0233 31.9855 43.8845 32.2974 43.8845Z" fill="white"/>
<path d="M29.8368 8.86023C30.8764 8.96437 31.1189 9.51976 31.0843 9.97101C31.0843 10.1446 31.0496 10.2834 30.9803 10.3876C30.7724 10.7347 30.5645 10.7347 30.5298 11.0124C30.4952 11.2553 30.8071 11.6372 30.8071 11.8454C30.7724 12.0884 30.6338 12.1579 30.3566 12.1579C30.0793 12.1231 29.9061 12.019 29.8021 11.8107L29.5595 11.3248C29.4902 11.1512 29.3516 11.0471 29.2823 11.0471C29.0744 11.0124 29.0051 11.1512 28.9704 11.4636C28.9358 11.8454 28.7625 12.019 28.4506 11.9843C28.1734 11.9496 28.0001 11.7413 28.0001 11.5678L28.208 9.31149C28.2427 8.82552 28.4853 8.72139 28.8665 8.7561L29.8368 8.86023ZM30.0447 9.9363C30.0447 9.72803 29.9061 9.58918 29.6288 9.55447C29.317 9.51976 29.1437 9.62389 29.1437 9.83216C29.109 10.0751 29.2823 10.1793 29.5249 10.214C29.8714 10.2487 30.0447 10.1099 30.0447 9.9363Z" fill="white"/>
<path d="M28.7969 43.8498C28.9702 43.8498 29.4553 43.815 29.4207 44.1274C29.386 44.2663 29.3514 44.3357 28.9355 44.7175C28.693 44.9605 28.5543 45.0647 28.5543 45.2382C28.5543 45.3076 28.5543 45.3771 28.589 45.4465C29.2128 46.6614 29.2474 46.6961 29.2128 46.8697C29.1781 47.1127 28.9702 47.2168 28.7276 47.2168C28.3118 47.2168 28.1385 47.078 28.0345 46.835C27.688 46.1754 27.6187 46.106 27.5147 46.106C27.3415 46.106 27.2029 46.2796 27.1682 46.592C27.1335 47.0432 26.8563 47.1821 26.5444 47.1821C26.0593 47.1821 26.0246 46.835 26.0593 46.4184L26.3019 44.4746C26.3365 44.058 26.5791 43.815 26.9256 43.815C27.2722 43.815 27.3761 43.9539 27.4108 44.2316C27.4454 44.4051 27.4454 44.5093 27.5494 44.5093C27.7227 44.5093 28.0345 44.0927 28.2425 43.9886C28.485 43.9192 28.6237 43.8498 28.7969 43.8498Z" fill="white"/>
<path d="M27.584 11.3248C27.6187 11.7067 27.5147 11.9149 27.2028 11.9497C26.8216 11.9844 26.683 11.8802 26.6137 11.3596C26.5098 10.8389 26.4405 10.7347 26.0246 10.7695C25.5741 10.8042 25.5048 10.9083 25.5395 11.5678C25.5395 11.9497 25.4702 12.1232 25.1583 12.1926C24.7078 12.2273 24.6385 11.9497 24.5692 11.4984L24.5345 10.7695L24.4999 10.4223L24.3959 9.58925C24.3612 9.24213 24.5345 9.03386 24.7771 9.03386C25.1583 8.99915 25.2969 9.20742 25.3315 9.55454C25.3662 9.93637 25.5395 10.0752 25.9206 10.0058C26.3711 9.93637 26.4405 9.76281 26.4058 9.34627C26.3711 9.03386 26.5444 8.8603 26.787 8.82559C27.1682 8.79088 27.3068 8.92973 27.3761 9.51983L27.584 11.3248Z" fill="white"/>
<path d="M24.4654 43.8844C25.3664 43.8844 26.0594 44.6134 25.9208 45.5853C25.8169 46.592 24.9852 47.2862 24.0149 47.2862C23.0792 47.2862 22.4208 46.5572 22.5248 45.6547C22.5941 45.1688 22.7673 44.7522 23.0792 44.4398C23.4604 44.058 23.9109 43.8844 24.4654 43.8844ZM25.0198 45.5506C25.0545 45.1341 24.8812 44.6481 24.3614 44.6481C23.9456 44.6481 23.599 44.9952 23.5297 45.4812C23.4604 46.106 23.7376 46.4184 24.1535 46.4184C24.604 46.4531 24.9505 46.0713 25.0198 45.5506Z" fill="white"/>
<path d="M24.1189 11.3249C24.2922 11.8108 24.0842 12.5051 23.0446 12.8522C22.3516 13.0952 21.6585 12.991 21.5199 12.6439C21.4506 12.4356 21.6585 12.2274 21.8664 12.1579C22.1436 12.0885 22.3516 12.2621 22.7674 12.1232C23.01 12.0538 23.1139 11.8802 23.0793 11.7761C23.0446 11.6373 22.8367 11.6025 22.5595 11.6373C22.1783 11.7067 21.8664 11.7414 21.5892 11.672C21.2773 11.6025 21.0694 11.3943 21.0001 11.1166C20.8961 10.8389 20.9308 10.5612 21.0694 10.2835C21.208 10.0405 21.4506 9.79754 21.9357 9.65869C22.5941 9.45042 23.2872 9.55455 23.3565 9.83225C23.4258 10.0058 23.3219 10.2835 23.01 10.3876C22.7674 10.4571 22.4902 10.3182 22.2823 10.3876C22.1783 10.4223 22.0743 10.5265 22.109 10.6306C22.1436 10.7695 22.2476 10.8042 22.4902 10.7695C22.7674 10.7348 23.0446 10.5959 23.5644 10.7695C23.8763 10.8736 24.0496 11.0819 24.1189 11.3249Z" fill="white"/>
<path d="M22.1433 43.9539C22.5592 43.9539 22.7324 44.0927 22.6978 44.3357C22.6631 44.5093 22.5592 44.6481 22.3166 44.6828C21.9701 44.7523 21.8314 44.8564 21.8314 45.1341C21.7968 45.5506 21.6928 46.2449 21.6582 46.6614C21.6235 47.078 21.3809 47.2168 21.1384 47.2168C20.7918 47.2168 20.6532 47.0432 20.7225 46.6267L20.8958 45.0994C20.9304 44.8217 20.8611 44.7523 20.5146 44.6481C20.272 44.5787 20.1681 44.4746 20.2027 44.301C20.2374 44.058 20.4453 43.9192 20.8265 43.9539H22.1433Z" fill="white"/>
<path d="M20.8613 12.1579C21.4504 13.1992 20.6533 13.8934 20.2722 14.1364C19.8217 14.3794 19.3019 14.4488 18.886 14.2406C18.5741 14.067 18.4702 13.9629 17.9157 12.9909L17.6731 12.5744C17.4306 12.1231 17.3959 11.8455 17.7078 11.6719C18.089 11.4636 18.2969 11.533 18.6088 12.0537L19.1979 13.0604C19.3365 13.3033 19.6137 13.4422 19.8563 13.3033C20.0642 13.1645 20.1682 12.9215 19.9949 12.6091L19.3365 11.6372C19.0593 11.1512 19.0593 10.9082 19.4058 10.7C19.7523 10.4917 19.9603 10.5958 20.2722 11.1165L20.8613 12.1579Z" fill="white"/>
<path d="M18.228 14.5183C18.5052 14.796 18.5398 15.0736 18.2973 15.2819C18.124 15.4555 17.9507 15.4555 17.7428 15.3166C17.6388 15.2472 17.3616 14.9695 17.2577 15.0389C17.1883 15.0736 17.2577 15.1778 17.3963 15.629C17.5002 15.872 17.4309 16.0803 17.2577 16.2538C17.0844 16.3927 16.8765 16.4274 16.6339 16.3233C16.218 16.115 16.0794 16.0803 16.0448 16.115C16.0101 16.1497 16.0448 16.2538 16.322 16.601C16.4953 16.8439 16.3913 17.0869 16.2874 17.1911C16.0101 17.4688 15.7676 17.2952 15.4557 16.9481L14.2081 15.5943C13.9309 15.2819 13.8616 15.0389 14.1735 14.7612L14.3814 14.5877C14.52 14.4488 14.7626 14.2753 15.1091 14.4835L15.525 14.7612C15.9062 14.9695 16.0794 15.1084 16.1834 15.0042C16.322 14.9001 16.0794 14.5183 15.7676 13.8934C15.6289 13.6505 15.6636 13.4075 15.9062 13.1645L16.1141 12.9909C16.4606 12.6785 16.7379 12.8868 16.9458 13.1298L18.228 14.5183Z" fill="white"/>
<path fill-rule="evenodd" clip-rule="evenodd" d="M45.5933 45.32C46.6201 45.32 47.4526 44.4876 47.4526 43.4608C47.4526 42.4339 46.6201 41.6015 45.5933 41.6015C44.5664 41.6015 43.734 42.4339 43.734 43.4608C43.734 44.4876 44.5664 45.32 45.5933 45.32ZM45.5933 45.62C46.7858 45.62 47.7526 44.6533 47.7526 43.4608C47.7526 42.2682 46.7858 41.3015 45.5933 41.3015C44.4008 41.3015 43.434 42.2682 43.434 43.4608C43.434 44.6533 44.4008 45.62 45.5933 45.62Z" fill="white"/>
<path d="M44.8453 44.5543H45.3066V43.7809H45.6433L46.0566 44.5543H46.5659L46.1024 43.7063C46.3507 43.5998 46.4881 43.3835 46.4881 43.0852C46.4881 42.6516 46.2015 42.3725 45.7061 42.3725H44.8453V44.5543ZM45.3066 43.4101V42.7496H45.6177C45.884 42.7496 46.013 42.8679 46.013 43.0852C46.013 43.3015 45.884 43.4101 45.6198 43.4101H45.3066Z" fill="white"/>
</svg>
