<svg width="343" height="306" viewBox="0 0 343 306" fill="none" xmlns="http://www.w3.org/2000/svg">
<path d="M43.4153 269.321C37.011 262.792 35.5412 257.166 29.0844 250.69C24.9374 246.55 21.4727 241.454 18.1656 236.624C16.8007 234.66 16.1708 232.802 15.2784 230.679C13.7561 227.228 11.0264 224.681 9.50404 221.283C5.40949 212.419 4.4121 202.865 3.09974 193.31C1.36743 181.208 1.05247 169.371 0.999974 157.056C0.894986 141.132 5.72446 125.367 8.82162 109.868C12.0763 93.5189 18.2181 77.1702 29.3469 64.537C39.6882 52.8063 54.1766 46.4366 65.3579 35.8205C67.8252 33.485 70.3449 30.9902 73.0221 28.867C75.5418 26.903 78.5865 25.6291 81.2112 23.7713C90.0302 17.3486 100.319 16.2339 110.608 13.1021C131.711 6.62632 152.498 1.26519 174.756 0.999793C182.683 0.893632 190.977 2.0614 198.693 3.75997C203.103 4.7685 207.617 4.98082 212.079 5.83011C224.521 8.27181 237.119 10.6073 249.14 14.6945C251.45 15.4907 253.917 15.9685 256.07 17.0832C259.744 18.941 263.104 21.7542 266.726 23.8244C270.138 25.7353 274.495 26.903 277.645 29.2386C279.902 30.9371 281.687 33.1134 284.049 34.7589C288.039 37.5722 292.553 39.4831 296.543 42.2963C301.687 45.8527 306.831 49.5153 311.818 53.284C319.535 59.1228 326.359 68.6242 329.771 77.6479C332.029 83.5929 332.974 89.9095 335.021 95.9075C336.386 99.9947 338.013 103.976 339.168 108.116C343.263 122.554 343.525 139.115 342.423 154.031C341.583 165.602 339.903 176.749 337.698 188.055C336.858 192.248 335.231 196.123 333.289 199.945C329.194 208.119 324.89 216.188 320.533 224.256C315.966 232.696 311.451 241.613 304.784 248.673C300.48 253.238 295.913 257.856 291.188 261.996C283.209 269.003 274.443 275.372 265.046 280.309C228.51 299.524 186.515 305.947 145.727 305.947C138.01 305.947 130.503 306 122.839 304.779C117.17 303.823 111.5 302.55 105.831 301.435C98.5343 300.002 91.2901 298.356 83.8884 297.56C79.3739 297.082 74.8069 296.127 71.2373 293.367C66.3028 289.598 60.6334 286.413 55.279 283.228L43.4153 269.321Z" fill="#F5E2C5"/>
<path d="M103.731 49.5155C103.154 49.5685 102.576 50.0463 102.471 50.6302C104.361 51.3733 106.461 51.5325 108.456 51.161C108.718 51.1079 109.033 51.0017 109.191 50.7894C109.611 50.2055 108.718 49.5155 108.036 49.3031C106.461 48.8254 104.886 48.2946 103.311 47.8169" fill="white"/>
<path d="M103.469 133.701C102.891 133.489 102.314 133.276 101.684 133.382C101.106 133.489 100.529 134.019 100.634 134.656C100.687 135.081 101.054 135.4 101.421 135.665C103.626 137.31 106.356 138.372 109.086 138.054C111.815 137.735 114.388 135.771 115.017 133.117L103.469 133.701Z" fill="white"/>
<path d="M101.841 82.0007C99.6892 81.7884 97.5369 81.8945 95.4371 82.3192C95.0172 82.4253 94.5447 82.5846 94.4923 83.0092C94.4398 83.4339 94.8597 83.7524 95.2797 83.9647C97.2744 84.9201 99.4792 85.4509 101.684 85.504C102.209 85.504 102.734 85.504 103.154 85.1855C103.574 84.8671 103.784 84.2301 103.416 83.8585C102.314 83.2746 101.211 82.6377 100.057 82.0538" fill="white"/>
<path d="M101.002 176.112C96.7495 175.475 92.34 176.112 88.4029 177.864C87.7205 178.182 86.9856 178.872 87.4056 179.456C89.9253 179.616 92.4975 178.713 94.3348 177.015L101.002 176.112Z" fill="white"/>
<path d="M174.546 163.32C174.021 162.046 172.131 162.364 170.976 163.108C168.404 164.647 166.199 166.876 164.73 169.53C164.52 169.902 164.31 170.326 164.362 170.751C164.467 171.229 164.835 171.6 165.255 171.866C168.352 173.883 172.866 173.724 175.386 171.017C177.906 168.309 177.433 163.161 174.179 161.409L174.546 163.32Z" fill="white"/>
<path d="M113.548 254.884C111.868 256.688 110.241 258.546 108.718 260.457C108.246 261.094 107.721 261.731 107.616 262.527C107.406 264.438 109.926 265.765 111.658 264.916C113.39 264.067 114.23 262.049 114.388 260.139C114.598 258.228 114.283 256.264 114.545 254.353" fill="white"/>
<path d="M181.108 247.346C179.113 251.486 179.9 256.848 182.998 260.245C184.887 257.325 185.57 253.663 184.94 250.266C184.73 248.992 184.257 247.718 183.155 247.028C182.053 246.338 180.32 246.709 180.058 247.983" fill="white"/>
<path d="M65.148 225.849C62.9432 226.114 60.686 226.008 58.5337 225.477C60.4235 224.097 62.4183 222.876 64.4655 221.868C65.3054 221.443 66.5653 221.178 67.0378 222.027C67.5102 222.876 66.6178 223.778 65.7779 224.256C64.2031 225.105 62.4708 225.689 60.686 225.849" fill="white"/>
<path d="M45.4102 131.631C48.4548 131.365 51.552 131.472 54.5967 131.896C55.4891 132.002 56.3815 132.215 57.0639 132.746C57.7463 133.276 58.1138 134.338 57.6938 135.134C54.9641 135.506 52.1819 135.718 49.3997 135.718C46.5126 135.718 43.1004 135.134 41.8931 132.427C43.3629 132.002 44.9377 131.896 46.4076 132.109" fill="white"/>
<path d="M184.415 63.7942C180.53 66.2359 178.483 71.3847 179.743 75.8965C182.788 72.7117 184.362 68.1467 183.942 63.688" fill="white"/>
<path d="M261.162 92.6698C258.642 92.4044 256.07 92.5637 253.655 93.1475C253.077 93.3068 252.5 93.5191 252.237 94.0499C251.818 95.1115 253.34 95.9077 254.495 95.8546C256.857 95.7485 259.167 94.5276 260.637 92.6167" fill="white"/>
<path d="M140.687 112.522C139.532 114.167 140.005 116.556 141.212 118.148C142.42 119.741 144.257 120.749 145.989 121.705C146.672 117.671 143.679 113.318 139.69 112.575" fill="white"/>
<path d="M260.689 175.634C256.07 175.422 251.45 175.422 246.831 175.688C251.503 177.227 256.227 178.448 261.057 179.297C261.424 178.342 260.689 177.174 259.692 177.015" fill="white"/>
<path d="M241.266 208.598C244.048 211.039 247.198 213.056 250.558 214.543C251.24 213.216 250.978 211.57 250.138 210.296C249.298 209.022 248.09 208.173 246.778 207.43C245.676 206.793 244.416 206.156 243.156 206.315C241.896 206.474 240.636 207.642 240.899 208.916" fill="white"/>
<path d="M194.651 214.489C194.284 217.515 194.861 220.647 196.279 223.354C197.381 222.717 197.906 221.496 198.273 220.275C198.693 218.683 198.851 216.878 198.116 215.392C197.381 213.905 195.544 212.897 194.021 213.534" fill="white"/>
<path d="M155.648 207.164C152.551 207.005 150.084 209.659 148.141 212.154C151.501 212.685 155.123 210.296 156.016 207.005" fill="white"/>
<path d="M234.652 248.461C236.542 252.548 239.744 255.998 243.681 258.122C244.888 255.68 243.261 252.707 241.056 251.168C238.851 249.629 236.174 248.939 233.917 247.399" fill="white"/>
<path d="M285.361 126.747C282.159 126.217 278.8 126.588 275.807 127.915C280.217 129.402 285.204 129.295 289.508 127.491" fill="white"/>
<path d="M290.401 181.261C289.823 182.376 291.241 183.437 292.448 183.756C294.443 184.34 307.776 186.41 307.461 182.376C307.251 180.04 292.973 181.208 290.401 181.261Z" fill="white"/>
<path d="M141.265 40.0141C141.265 40.651 141.317 41.3411 141.737 41.8188C142.682 42.8273 144.414 41.6065 144.834 40.2795C145.727 37.6255 144.309 31.5743 141.58 30.8312C141.002 33.6975 141.265 37.0416 141.265 40.0141Z" fill="white"/>
<path d="M251.765 39.1648C249.298 41.2349 247.513 44.1544 246.726 47.3392C248.458 48.0823 250.61 47.1269 251.608 45.4814C252.552 43.8359 252.5 41.7127 251.713 39.961" fill="white"/>
<path d="M41.3681 72.8709C44.7802 73.614 48.1923 74.3571 51.6044 75.1533C49.7147 72.8709 47.0374 71.2785 44.1503 70.7476C42.8379 70.4822 41.0531 70.8007 40.9481 72.1277" fill="white"/>
<path d="M29.8718 193.151C34.1239 191.983 38.5334 191.718 42.8904 192.249C43.0479 194.319 41.3156 196.177 39.3208 196.601C37.326 197.079 35.2262 196.442 33.4414 195.487C32.864 195.168 32.2866 194.797 32.1291 194.213C31.9191 193.629 32.3916 192.779 33.0215 192.886" fill="white"/>
<path d="M214.914 130.782C212.867 131.206 211.292 133.276 211.397 135.4C213.182 134.497 214.652 133.117 215.754 131.472" fill="white"/>
<path d="M208.877 86.1941C208.615 86.6718 208.352 87.2026 208.037 87.6803C208.405 88.3704 209.507 88.3173 210.085 87.7334C210.662 87.1495 210.767 86.3002 210.872 85.504" fill="white"/>
<path d="M308.879 94.8992C304.574 96.4916 300.532 98.6149 296.805 101.269C300.585 101.959 304.732 99.9419 306.569 96.4916" fill="white"/>
<path d="M155.123 285.776C152.918 287.316 151.344 289.864 151.029 292.624C152.341 291.244 153.548 289.757 154.651 288.218C155.123 287.528 155.386 286.307 154.598 286.148" fill="white"/>
<path d="M100.792 223.778C100.004 222.345 100.739 220.328 102.209 219.691C101.841 221.868 100.844 223.885 99.3218 225.424" fill="white"/>
<path d="M77.0117 261.147C77.4317 260.829 77.9041 260.457 78.3766 260.139C76.0143 261.731 77.1692 267.57 72.3397 266.455C73.0746 264.438 75.2794 262.527 77.0117 261.147Z" fill="white"/>
<path d="M80.0038 158.49C75.5943 158.49 71.1848 158.543 66.8278 158.543C67.6152 161.144 69.0325 163.585 71.2373 165.125C73.442 166.664 76.4342 167.142 78.8489 165.921C81.2637 164.753 82.7335 161.727 81.8936 159.18C81.4736 158.967 81.0012 158.702 80.5812 158.49" fill="white"/>
<path d="M213.654 189.648C212.499 192.673 211.292 195.752 210.137 198.778C214.389 200.051 218.851 200.742 223.313 200.901C223.838 200.901 224.416 200.901 224.835 200.635C225.833 200.051 225.78 198.565 225.36 197.504C223.628 192.992 218.116 191.506 213.444 190.656" fill="white"/>
<path d="M144.257 260.563C147.511 256.794 152.708 254.83 157.59 255.521C158.693 257.803 157.328 260.616 155.176 261.943C153.076 263.217 150.399 263.323 147.931 263.111C145.727 262.952 143.364 262.474 141.947 260.775" fill="white"/>
<path d="M210.4 267.729C209.875 270.967 209.402 274.152 208.877 277.39C208.615 279.194 208.51 281.53 210.137 282.379C212.079 283.441 214.179 281.371 215.439 279.566C217.539 276.487 219.691 272.612 218.011 269.322C216.699 266.721 213.549 265.818 210.767 265.128" fill="white"/>
<path d="M265.414 226.539C264.206 231.051 263.261 235.669 262.526 240.286C267.093 237.261 271.608 234.235 276.175 231.21C272.868 229.83 269.613 228.45 266.306 227.069" fill="white"/>
<path d="M154.126 67.032C152.971 67.722 152.026 68.6775 151.291 69.7922C154.231 72.4462 158.325 73.7732 162.262 73.2955C161.107 69.6329 157.38 66.9789 153.601 67.1381" fill="white"/>
<path d="M140.845 163.745C138.43 164.275 136.068 165.284 134.02 166.664C136.173 168.309 138.377 169.849 140.687 171.335C142.787 172.662 145.517 173.883 147.564 172.45C149.926 170.804 149.086 166.823 146.776 165.125C144.467 163.426 141.37 163.479 138.535 163.585" fill="white"/>
<path d="M174.178 116.768C172.656 119.316 171.186 121.864 169.664 124.412C172.814 125.155 176.121 125.049 179.165 124.094C178.326 121.015 175.648 118.573 172.551 118.042" fill="white"/>
<path d="M155.176 177.015C155.963 178.023 157.223 178.607 158.483 178.501C158.955 178.448 159.428 178.342 159.795 178.023C160.74 177.227 160.32 175.581 159.323 174.838C158.325 174.095 157.013 174.095 155.806 174.095" fill="white"/>
<path d="M187.46 152.067C186.725 151.271 185.255 151.536 184.782 152.545C186.462 152.863 188.299 152.067 189.192 150.581" fill="white"/>
<path d="M250.453 152.598C248.353 152.438 246.148 152.863 244.258 153.765C246.148 153.659 248.038 153.606 249.98 153.5" fill="white"/>
<path d="M127.459 206.474C124.256 209.978 121.054 213.428 117.852 216.931C122.734 218.311 127.826 219.001 132.866 218.948C133.443 214.649 130.976 210.137 127.091 208.332" fill="white"/>
<path d="M67.9827 240.34C68.6126 240.233 69.3475 240.233 69.715 240.711C69.9775 241.083 69.925 241.614 69.8725 242.091C69.7675 244.692 72.3397 247.081 74.8594 246.709C72.2872 248.089 69.6625 249.363 66.9853 250.478C64.728 251.38 62.3658 252.23 59.9511 251.805C56.7489 251.274 52.3394 248.089 54.1242 244.586C55.804 241.295 64.938 240.817 67.9827 240.34Z" fill="white"/>
<path d="M75.2793 88.4234C77.3791 88.4234 79.4264 88.3703 81.5261 88.3703C81.8936 88.3703 82.3661 88.3703 82.6285 88.6888C82.9435 89.1135 82.681 89.6443 82.3661 90.0689C80.6337 92.5637 77.7465 94.2092 74.7544 94.4215C74.1244 94.4746 73.4945 94.4215 73.0221 93.9968C72.7071 93.6784 72.6021 93.1476 72.5496 92.6698C72.3396 90.812 72.6021 88.9542 73.1795 87.2026" fill="white"/>
<path d="M216.016 32.2112C215.649 31.362 214.389 31.8397 213.707 32.3705C209.927 35.343 206.252 38.3155 202.578 41.3411C205.57 41.978 208.667 42.4027 211.607 41.7126C214.547 41.0226 217.381 39.0055 218.379 36.1392C219.114 33.9629 218.274 30.8842 216.016 30.6188" fill="white"/>
<path d="M279.01 72.9239C272.763 72.5524 266.516 72.9239 260.374 74.0386C264.364 77.1704 269.718 77.7542 274.81 78.232C275.492 78.285 276.227 78.3381 276.857 78.0196C277.487 77.7012 277.855 77.0642 278.17 76.4272C278.957 74.8348 279.43 73.0832 279.639 71.2784" fill="white"/>
<path d="M229.14 114.114C229.297 116.503 225.255 117.777 225.938 120.059C226.358 121.386 228.09 121.599 229.455 121.599C235.334 121.599 241.214 121.546 247.145 121.546C247.67 120.431 246.831 119.104 245.938 118.255C241.004 113.53 233.444 111.832 226.988 114.061" fill="white"/>
<path d="M67.8251 118.361C67.8251 121.97 67.8251 125.58 67.8251 129.189C67.4052 127.119 68.9275 125.208 69.9249 123.297C70.9223 121.386 70.8698 118.414 68.875 117.83" fill="white"/>
<path d="M29.1894 154.721C31.3942 154.721 33.6514 154.774 35.8562 154.774C33.1265 155.783 30.2918 156.313 27.4046 156.473C26.7747 156.473 25.9873 156.419 25.6723 155.889C25.3049 155.358 26.0923 154.402 26.5122 154.88" fill="white"/>
<path d="M32.444 107.692C32.6015 109.231 31.5516 110.823 30.0293 111.301C29.6618 110.717 29.5568 109.974 29.7668 109.337" fill="white"/>
<path d="M224.888 230.785C224.94 232.431 226.778 233.811 228.353 233.28C227.828 232.059 226.358 231.316 225.098 231.581" fill="white"/>
<path d="M288.564 210.349C287.881 210.137 287.199 209.924 286.516 209.712C288.774 208.173 291.398 207.27 294.075 207.111C294.863 207.058 295.755 207.111 296.438 207.483C298.38 208.597 297.645 211.995 295.598 213.003C293.551 214.012 291.136 213.375 289.088 212.472" fill="white"/>
<path d="M275.86 245.223C274.285 246.868 273.078 248.886 272.448 251.062C274.128 252.017 276.542 251.486 277.645 249.841C278.747 248.249 278.485 245.807 277.015 244.48" fill="white"/>
<path d="M184.048 283.282C183.68 282.061 183.628 280.787 183.838 279.566C185.045 279.194 186.62 279.354 187.25 280.468C187.88 281.583 186.41 283.282 185.465 282.485" fill="white"/>
<path d="M297.015 151.058C292.711 154.933 288.616 158.967 284.731 163.161C287.934 162.524 291.871 164.647 294.233 162.364C296.648 160.029 294.6 155.889 295.44 152.598" fill="white"/>
<path d="M312.343 134.497C311.818 135.771 313.656 137.151 314.811 136.461C315.965 135.771 316.07 133.86 315.073 132.852C314.076 131.896 312.448 131.843 311.241 132.427" fill="white"/>
<path d="M176.646 27.9649C176.541 27.1156 176.436 26.3194 176.331 25.4701C178.063 26.7971 178.798 29.345 178.011 31.4151" fill="white"/>
<path d="M134.545 71.8092C133.233 71.8623 131.921 72.4462 130.976 73.4016C133.023 73.4016 135.123 73.4016 137.17 73.4016C137.223 72.1808 136.225 71.0661 135.07 70.96" fill="white"/>
<path d="M92.1824 199.202C90.2926 199.202 88.4029 199.202 86.5131 199.255C88.4029 198.937 90.2927 198.778 92.2349 198.778" fill="white"/>
<path d="M71.0273 201.856C70.4499 199.574 70.2924 197.238 70.6074 194.903C71.2373 194.903 71.8672 194.903 72.4447 194.956C73.2321 197.026 72.3397 199.627 70.4499 200.742" fill="white"/>
<path d="M141.37 233.333C140.425 233.492 139.427 233.651 138.535 233.333C137.642 233.014 136.855 232.059 137.118 231.104C137.432 229.989 139.165 229.723 139.952 230.626C140.74 231.528 140.53 233.014 139.742 233.864" fill="white"/>
<path d="M197.014 183.597C195.964 182.27 195.596 180.359 196.121 178.713C197.591 180.04 197.171 182.8 195.386 183.65" fill="white"/>
<path d="M209.455 153.075C208.51 152.332 206.987 153.341 206.987 154.562C206.987 155.782 208.142 156.738 209.297 156.95C210.452 157.162 211.659 156.897 212.814 156.579C213.392 154.721 211.554 152.491 209.612 152.81" fill="white"/>
<path d="M123.679 101.747C124.466 101.428 125.306 101.057 126.094 100.738C127.249 100.26 129.086 100.048 129.348 101.322C129.558 102.224 128.613 102.914 127.774 103.286C125.936 104.082 122.892 103.658 123.207 101.694" fill="white"/>
<path d="M165.674 95.8016C165.202 97.5002 166.567 99.4642 168.352 99.6234C168.877 98.668 168.247 97.2879 167.144 97.0225" fill="white"/>
<path d="M156.908 144.105C160.425 145.007 164.047 145.379 167.669 145.326C168.247 144.689 167.984 143.627 167.354 143.096C166.724 142.565 165.832 142.406 165.045 142.3C162.42 141.982 159.795 141.875 157.17 142.141" fill="white"/>
<path d="M122.524 182.96C121.947 183.809 121.002 184.287 120.005 184.287C120.005 182.747 120.005 181.261 120.005 179.722C121.737 178.926 124.047 180.359 124.047 182.27" fill="white"/>
<path d="M43.4153 221.071C41.998 221.974 39.7932 221.018 39.5308 219.373C40.2132 219.32 40.8956 219.267 41.578 219.267" fill="white"/>
<path d="M102.051 283.122C104.991 282.857 107.983 282.963 110.87 283.494C109.873 284.98 107.773 285.617 106.146 284.927" fill="white"/>
<path d="M130.503 247.399C129.401 248.355 128.928 250 129.348 251.38C130.818 251.38 132.341 251.38 133.81 251.38C133.863 249.629 133.863 247.877 133.915 246.072" fill="white"/>
<path d="M165.254 229.299C164.625 226.008 164.939 222.505 166.094 219.32C169.349 222.664 167.564 229.352 163.102 230.573" fill="white"/>
<path d="M179.008 195.752C178.326 194.637 176.383 195.911 176.593 197.185C176.856 198.512 178.168 199.202 179.428 199.627C182.315 200.582 185.465 200.795 188.457 200.211C187.88 197.451 186.777 194.584 184.467 192.992C182.158 191.399 178.378 191.877 177.276 194.478" fill="white"/>
<path d="M136.75 128.181C134.125 130.198 131.501 132.215 128.876 134.232C127.354 135.4 125.726 137.47 126.881 138.956C130.923 140.655 135.333 141.451 139.69 141.132C137.748 138.531 136.173 135.665 134.965 132.639" fill="white"/>
<path d="M123.942 154.774C123.207 154.774 122.524 154.774 121.789 154.774C124.152 154.774 126.461 154.774 128.824 154.774C129.453 154.774 130.136 154.774 130.608 154.349C131.081 153.925 131.081 152.969 130.503 152.81" fill="white"/>
<path d="M104.361 156.897C103.889 155.411 103.784 153.819 104.151 152.279C105.884 151.377 108.298 152.704 108.508 154.668C108.718 156.632 106.566 158.437 104.729 157.906" fill="white"/>
<path d="M90.6602 135.347C89.5578 134.657 89.0854 133.064 89.6103 131.843C90.1353 133.117 90.2402 134.55 89.9778 135.93" fill="white"/>
<path d="M103.941 120.537C103.731 119.422 103.574 118.308 103.364 117.193C104.466 117.193 105.516 117.193 106.618 117.193C106.618 118.255 106.618 119.316 106.566 120.378C105.726 120.643 104.886 120.909 103.994 121.174" fill="white"/>
<path d="M88.7704 93.6784C87.143 95.3769 85.8307 97.3409 84.9908 99.5172C84.6758 100.366 84.4133 101.428 84.9908 102.171C85.4107 102.702 86.1456 102.861 86.7756 102.967C91.0801 103.764 95.4896 103.976 99.8467 103.657C100.319 103.604 100.792 103.551 101.212 103.339C102.734 102.384 101.736 99.9949 100.477 98.721C96.2771 94.4746 90.7127 91.6613 84.7808 90.8651" fill="white"/>
<path d="M79.2689 54.9297C76.1193 56.0444 73.5996 58.8046 72.7596 62.0956C78.1666 63.051 83.6785 63.4757 89.1904 63.4757C90.2927 63.4757 91.8676 62.7856 91.3426 61.7771C87.6155 58.6454 83.5735 55.8852 79.2689 53.6027" fill="white"/>
<path d="M129.086 53.1781C127.406 54.5581 125.726 55.9913 124.099 57.3714C126.356 58.1145 129.033 57.4245 130.608 55.6198C132.183 53.815 132.551 51.0548 131.553 48.8785" fill="white"/>
<path d="M200.583 105.993C198.536 108.541 196.541 111.036 194.494 113.584C195.806 113.849 197.171 114.167 198.536 113.902C199.848 113.69 201.213 112.787 201.528 111.46C201.843 110.133 200.846 108.488 199.481 108.594" fill="white"/>
<path d="M228.038 64.6434C224.993 66.5012 221.948 68.359 218.904 70.2169C223.208 74.0386 227.933 77.3827 233.025 80.0367C233.549 76.9581 234.074 73.8263 233.549 70.8007C233.025 67.7221 231.187 64.6965 228.3 63.6349" fill="white"/>
<path d="M253.917 137.098C250.663 136.514 247.146 137.311 244.416 139.275C243.733 139.752 243.051 140.548 243.314 141.345C243.471 141.875 243.943 142.194 244.363 142.459C249.088 145.485 254.232 147.714 259.639 149.041C258.747 144.105 255.44 139.752 250.978 137.576" fill="white"/>
</svg>
