<svg xmlns="http://www.w3.org/2000/svg" width="710.8" height="608.6" viewBox="0 0 710.8 608.6" fill="none" stroke="#F9AF3C">
  <g class="folds">
    <path d="M211.5 603.3c-9-2-24.7-2.2-35.9-7.2-6.8-3-13.1-7.5-20.1-10.5-8.4-3.6-16.5-7.8-24.7-11.7-14-6.8-24-19.9-36.3-29.4-6.8-5.3-11.8-13.7-17.6-20.2-7.5-8.4-15.8-16.1-21.7-25.9-5.2-8.6-11.3-16.3-16.5-24.9-5.7-9.4-9.2-20-13.4-30.1-10.3-24.9-15-51.2-19-77.6-1.5-9.9-4.5-19.5-5.3-29.5C.1 325 .9 313.4.8 302c-.3-24.1 6.7-47.7 17.7-69.1C30 210.1 46.8 191 59.9 169.4c14.7-24.3 30.8-47 54.2-63.9 24.3-17.5 50.1-36.4 77.4-48.9 11.6-5.3 23.5-10.4 35.3-15.5 10.9-4.7 22.7-6.3 33.8-10.6C281 22.6 300 14.6 321.4 9.1c23.6-6.1 45.8-7.3 70.1-8C422.3.2 454.9-.5 485.3 6c30 6.4 59 16.3 85.3 32.2 10.5 6.3 21.1 13.2 30.1 21.4 11.6 10.6 19 24.7 26.8 38.1 19.6 33.7 36.3 69.2 50.6 105.4 18.9 47.9 37.4 99.3 31 151.5-2.8 23.2-9.3 49.5-21.5 69.6-13.8 22.6-30.9 42.6-50.1 60.8-32.1 30.4-68.9 53.8-109.4 71.4-16.9 7.3-34.6 14.4-52.4 19.4-20.7 5.8-42.6 7.6-63.9 10.4-13.7 1.8-28.1 2.7-41.8 5.2-12.8 2.4-24.9 6.9-37.8 9-18.8 3.1-38.8 4.8-57.9 5.3-13.6.4-26.9 2.1-40.5 2.3-.1.1-13.3-2.7-22.3-4.7z"/>
    <path d="M325.3 323.2c-18.4-21-10.5-59 14.8-70.9 5.4-2.6 11.4-4 16.4-7.3 7.4-4.8 12-12.8 17.9-19.5 14.5-16.2 36.4-23.5 57.8-27.7 13.8-2.8 28.4-2.6 41.4 1.4 6.8 2.1 12.4 7.2 17.9 11.7 9.7 8 19.5 15.9 29.2 23.9 6.5 5.3 13.2 10.9 16.8 18.4 4.6 9.7 3.4 21.2.1 31.4-10.8 33.4-42.2 57.2-76 66.9-48.6 14-95.1 8.3-132.9-25.4l-3.4-2.9z"/>
    <path d="M193.5 390.3c-4.7-7.6-14.2-19.3-19.2-31.6-6.8-16.8-8.5-33.5-4.9-51.5 6.2-30.9 17.8-58.5 32.6-86 3.6-6.6 5.9-14.1 10.2-20.2 5.4-7.6 10.8-13.9 14.4-22.7 5.1-12.7 18.5-23.6 28.9-32.9 5.8-5.2 5.9-9.7 12.8-13.1 8.4-4.2 16.5-8.8 25.2-12.4 18.9-7.8 40.8-11.8 61.2-12.2 18.8-.4 37.9-.6 56.7 0 12.9.4 27.1 2.1 39.6 4.9 16.5 3.7 34 6.3 49.9 12.1 12.2 4.4 22.3 12.6 32.7 20.1 8.7 6.3 16.6 12.5 21.7 22.2 8.7 16.5 11.7 36 19.7 53.1 7.5 16 11.8 31.4 16 48.5 5.3 21.5 9.1 46.4 5.6 68.6-1.7 11.1-4.5 22.9-10.6 32.3-12.1 18.7-33.2 31.2-52.2 41.2-22.9 12-46.8 25.1-72.2 31-25.2 5.8-53 1.2-78.4-.1-30.3-1.6-60.4-2.8-90.7-2.8-7 0-3.8-.2-13.9-1.6-7-1-10.7-1.5-17-4-7.1-2.9-10-2.7-17-6-7.5-3.5-25-9-36-15-.1.1-10.4-14.3-15.1-21.9z"/>
    <path d="M530.2 299.9c5.5 2.2 10.7 2.9 12.2 3.7 2.9 1.4 5.5 2.4 7.9 3.3 5 2.1 8.8 3.6 13.7 5.3 2.9 1 6.2 2 10.3 3.3.4.1 1 .3 1.5.5 3.5 1.2 8.7 3.4 11.2 4.7 1.1.6 2.9 1.7 4.8 2.8 2.1 1.2 4.2 2.3 5.6 2.3M528.4 302.6c5.3 2.3 10.1 3.7 12.1 4.8 2.8 1.6 5.4 2.7 7.9 3.8 5 2.1 9.2 3.7 14 5.5 3.1 1.2 6.5 2.4 10.3 4 .5.2 1 .4 1.5.7 3.5 1.5 8.3 4.2 10.9 5.8 1.2.7 3.1 1.8 5 2.9 2.1 1.2 4.2 2.2 5.7 2.4M526.7 305.2c5.1 2.4 9.5 4.4 12 6 2.6 1.7 5.3 3 8 4.2 5.1 2.2 9.5 3.8 14.4 5.8 3.3 1.3 6.7 2.8 10.4 4.6.5.2 1 .5 1.5.8 3.5 1.9 7.8 4.9 10.6 6.9 1.3.9 3.3 1.8 5.1 2.9 2.1 1.2 4.2 2.2 5.9 2.5M525 307.9c4.9 2.5 8.9 5 11.8 7.1 2.6 1.9 5.2 3.4 8 4.7 5.1 2.3 9.9 3.9 14.8 6.1 3.4 1.5 6.9 3.2 10.5 5.3l1.5.9c3.6 2.2 7.3 5.7 10.4 8 1.4 1 3.5 1.9 5.3 3 2.1 1.2 4.2 2.1 6.1 2.6M523.2 310.6c4.7 2.7 8.4 5.7 11.7 8.3 2.5 2 5.1 3.7 8.1 5.1 5.1 2.4 10.2 4 15.2 6.4 3.6 1.7 7.1 3.6 10.6 5.9.5.3 1 .7 1.5 1.1 3.6 2.6 6.8 6.5 10.1 9.1 1.5 1.2 3.6 2 5.5 3 2.1 1.2 4.2 2 6.3 2.7M521.5 313.3c7.5 4.6 11.7 11.1 19.7 15 5.1 2.4 10.5 4.2 15.5 6.7 4.3 2.1 8.4 4.7 12.1 7.8 3.6 3 6.3 7.2 9.8 10.2 1.6 1.4 3.8 2 5.6 3.1 2.1 1.2 4.1 1.9 6.5 2.8M519 315.8c6.1 4.1 10.1 9.3 15.7 13.5 1.1.8 2.2 1.6 3.5 2.3 2.4 1.4 4.9 2.6 7.5 3.8 2.6 1.2 5.1 2.4 7.6 3.7.4.3.9.5 1.3.8 1.8 1.1 3.5 2.4 5.3 3.6 1.7 1.3 3.4 2.6 5.1 4 1.4 1.2 2.6 2.5 3.8 3.9 2 2.3 3.8 4.5 6.1 6.3.9.7 1.9 1.2 2.9 1.7.9.4 1.9.8 2.8 1.3l1.8.9c1.5.7 3 1.4 4.7 1.8M516.5 318.3c6 4.4 9.9 9.5 15.4 14.1 1.1.9 2.2 1.7 3.3 2.5 2.3 1.6 4.7 3 7.2 4.3 2.5 1.3 5 2.6 7.4 4.1.4.3.9.6 1.3.8 1.8 1.2 3.3 2.6 5 4 1.7 1.4 3.3 2.8 5 4.2 1.4 1.2 2.6 2.6 3.8 4 2 2.4 3.9 4.5 6.2 6.3.9.7 1.9 1.2 3 1.7.9.5 1.9.8 2.8 1.3l1.8.9c1.5.8 2.9 1.6 4.7 1.9M514 320.8c5.8 4.6 9.8 9.8 15 14.7 1 1 2.1 1.9 3.2 2.8 2.2 1.8 4.4 3.4 6.9 4.9 2.4 1.4 4.9 2.9 7.3 4.5.4.3.8.6 1.3.9 1.7 1.3 3.1 2.9 4.7 4.4 1.6 1.5 3.2 2.9 4.8 4.4 1.3 1.3 2.6 2.6 3.8 4.1 2 2.5 3.9 4.5 6.3 6.2.9.6 1.9 1.2 3 1.7 1 .5 1.9.8 2.8 1.3.6.3 1.2.6 1.9.9 1.5.8 2.9 1.7 4.7 1.9M511.5 323.3c5.6 4.9 9.6 10 14.6 15.2l3 3c2.1 1.9 4.2 3.8 6.6 5.4 2.3 1.6 4.8 3.2 7.1 4.9.4.3.8.6 1.2 1 1.7 1.4 2.9 3.2 4.4 4.7 1.5 1.6 3.1 3 4.7 4.6 1.3 1.3 2.6 2.7 3.8 4.2 2 2.6 3.9 4.5 6.4 6.2.9.6 1.9 1.2 3 1.7 1 .5 1.9.8 2.9 1.2.6.3 1.3.6 1.9.9 1.5.8 2.8 1.9 4.7 1.9M509 325.8c5.5 5.1 9.4 10.2 14.3 15.8.9 1.1 1.9 2.2 2.8 3.2 1.9 2.1 4 4.1 6.3 5.9 2.3 1.7 4.7 3.5 6.9 5.3.4.3.8.7 1.2 1 1.6 1.5 2.7 3.4 4.1 5.1 1.5 1.7 3 3.2 4.6 4.8 1.3 1.3 2.6 2.7 3.8 4.2 2 2.7 4 4.5 6.5 6.2.9.6 2 1.1 3.1 1.7 1 .5 2 .8 2.9 1.2.6.3 1.3.5 1.9.9 1.5.8 2.8 2 4.7 1.9M506.5 328.3c5.3 5.4 9.3 10.4 13.9 16.4 2.7 3.5 5.3 7 8.7 9.9 2.6 2.2 5.5 4.4 7.9 6.8 1.6 1.6 2.5 3.7 3.8 5.5 2.5 3.3 5.7 5.8 8.2 9.2 2.8 3.8 5.4 5.7 9.7 7.8 1.6.8 3.3 1.1 4.9 2 1.5.9 2.8 2.2 4.7 1.9M503.2 330.4c5.1 5.5 9 10.6 13.6 16.5 2.7 3.5 5.2 7 8.4 9.9 2.4 2.2 5.1 4.7 7.4 7.1 1.4 1.5 2.3 3.3 3.5 4.9.1.2.3.3.4.5 2.1 2.5 4.6 4.5 6.9 6.9.6.6 1.1 1.2 1.7 1.9 2.8 3.6 5.2 5.8 9 8.3 1.5 1 3 1.5 4.4 2.5 1.4 1 2.6 2.3 4.4 2.3M499.9 332.5c4.8 5.5 8.8 10.7 13.2 16.5 2.6 3.4 5.1 7 8 10 2.2 2.3 4.7 4.9 6.9 7.5 1.3 1.5 2.3 3.3 3.5 4.8.1.2.3.3.4.5 2.2 2.4 4.8 4.3 7.1 6.5.6.6 1.2 1.2 1.7 1.8 2.8 3.4 5 6 8.3 8.8 1.3 1.1 2.6 1.8 3.9 2.9 1.3 1.1 2.4 2.4 4.1 2.6M496.6 334.6c4.5 5.6 8.6 10.8 12.9 16.6 2.5 3.4 4.9 6.9 7.7 10.1 2 2.3 4.3 5.1 6.4 7.8 1.3 1.6 2.3 3.3 3.6 4.7.1.2.3.3.4.5 2.3 2.3 4.9 4 7.3 6.1.6.5 1.2 1.1 1.8 1.8 2.8 3.3 4.8 6.2 7.6 9.2 1.1 1.2 2.3 2.2 3.4 3.4 1.1 1.2 2.2 2.6 3.7 3M493.3 336.7c4.3 5.6 8.3 10.9 12.5 16.7 2.5 3.4 4.8 6.9 7.4 10.2 1.8 2.4 3.9 5.4 5.9 8.1 1.2 1.6 2.3 3.3 3.6 4.6.2.2.3.3.5.4 2.4 2.2 5 3.8 7.5 5.7.7.5 1.3 1.1 1.8 1.7 2.8 3.1 4.6 6.4 6.9 9.7 1 1.3 1.9 2.5 2.9 3.8 1 1.3 2 2.7 3.4 3.4M490.1 338.8c4 5.7 8.1 11.1 12.1 16.7 2.4 3.4 4.7 6.8 7.1 10.2 1.7 2.4 3.4 5.6 5.4 8.4 1.2 1.7 2.3 3.3 3.6 4.5.2.1.3.3.5.4 2.5 2.1 5.2 3.5 7.8 5.4.7.5 1.3 1 1.9 1.6 2.8 2.9 4.3 6.5 6.2 10.1.8 1.5 1.6 2.8 2.4 4.2.9 1.4 1.8 2.8 3.1 3.7M486.8 341c6.1 9.2 12.9 17.7 18.6 27.1 2.4 3.9 4.9 10.2 8.5 13.2 2.7 2.2 5.6 3.6 8.5 5.4 6.9 4.4 6.7 15.2 12.2 20.9M483.4 342.5c5 7.9 10.1 15.9 14.7 23.9.8 1.4 1.5 2.8 2.2 4.2.9 1.8 1.8 4 3 6.2 1.5 2.8 3.1 5.5 5 7.3 1.4 1.3 2.9 2.4 4.5 3.5l3.6 2.4c2.9 2.1 4.7 5.2 6.3 8.5 1.2 2.6 2.1 5.3 3.4 7.8.8 1.5 1.9 3.1 3.1 4.5M480 344.1c4.8 7.9 9.2 16.6 13.4 24.7.7 1.4 1.3 2.9 1.9 4.3.8 1.9 1.5 4.2 2.7 6.4 1.4 2.8 2.9 5.5 4.8 7.5 1.3 1.4 2.7 2.6 4.2 3.8 1.1.9 2.3 1.8 3.4 2.7 2.8 2.2 4.7 5.2 6.4 8.5 1.3 2.5 2.3 5.2 3.6 7.7.7 1.4 2 2.9 3.2 4.5M476.6 345.6c4.6 7.9 8.4 17.4 12 25.5.6 1.5 1.2 2.9 1.6 4.5.6 2.1 1.3 4.3 2.3 6.5 1.4 2.8 2.8 5.6 4.5 7.8 1.2 1.5 2.5 2.9 3.9 4.1 1.1 1 2.2 1.9 3.3 2.9 2.7 2.4 4.8 5.3 6.6 8.5 1.5 2.5 2.5 5.1 3.9 7.6.7 1.2 2.1 2.8 3.3 4.4M473.3 347.2c4.4 7.9 7.5 18.1 10.7 26.4.6 1.5 1 3 1.3 4.6.5 2.2 1 4.5 2 6.7 1.3 2.8 2.7 5.6 4.3 8 1.1 1.6 2.3 3.1 3.6 4.4 1 1.1 2.1 2.1 3.1 3.1 2.6 2.5 4.8 5.3 6.8 8.4 1.6 2.4 2.7 5 4.2 7.5.7 1.1 2.2 2.7 3.4 4.4"/>
    <path d="M469.9 348.7c4.2 8 6.7 18.8 9.3 27.2.5 1.5.8 3.1 1 4.7.4 2.3.7 4.6 1.7 6.8 1.3 2.8 2.5 5.6 4 8.2 1 1.7 2.1 3.3 3.3 4.7 1 1.2 2 2.3 3 3.3 2.5 2.7 4.8 5.4 7 8.4 1.7 2.4 2.8 5 4.4 7.4.6 1 2.3 2.5 3.5 4.3"/>
    <path d="M466.5 350.3c4 8 5.8 19.5 8 28 1 3.9.5 8.2 2.1 11.9 2 4.5 3.9 9.4 6.8 13.5 3.1 4.3 6.7 7.8 10 12 1.9 2.4 3 4.9 4.7 7.3.6.8 2.4 2.4 3.6 4.3"/>
    <path d="M462.5 351.3c3.2 8.2 5 19.5 7.1 28.3 1 4 .6 8.2 2.2 11.9.4 1.1.8 2.1 1.3 3.2 1.4 3.7 3 7.3 4.9 10.6.2.3.4.7.6 1 2 3.3 4.3 6.2 6.5 9.3.5.7 1 1.5 1.5 2.3.9 1.4 1.5 2.8 2.3 4.2.6 1.1 1.2 2.2 1.9 3.4.6 1 2.3 2.7 3.4 4.5"/>
    <path d="M458.5 352.3c2.4 8.4 4.1 19.6 6.2 28.6.9 4 .8 8.2 2.2 12 .4 1.1.8 2.2 1.1 3.3 1.3 3.7 2.7 7.4 4.3 10.8.2.3.3.7.5 1 1.6 3.4 3.6 6.5 5.5 9.8.4.8.9 1.6 1.3 2.4.7 1.4 1.2 2.9 1.9 4.3.5 1 1.1 2.2 1.8 3.5.7 1.2 2.2 3 3.1 4.7M454.5 353.3c1.6 8.5 3.3 19.6 5.3 28.8.9 4.1 1 8.2 2.2 12 .3 1.1.7 2.2 1 3.3 1.1 3.8 2.5 7.5 3.7 11 .1.4.2.7.4 1.1 1.2 3.6 2.9 6.8 4.4 10.3.4.8.7 1.7 1 2.5.5 1.5.9 3 1.5 4.5.4 1 1 2.2 1.7 3.5.7 1.4 2.1 3.4 2.8 4.9M450.5 354.3c.8 8.7 2.5 19.6 4.4 29.1.9 4.1 1.2 8.3 2.3 12.1.3 1.1.6 2.3.9 3.4 1 3.9 2.3 7.5 3.2 11.3.1.4.2.7.2 1.1.7 3.7 2.2 7.2 3.4 10.8.3.9.5 1.7.7 2.6.4 1.5.6 3.1 1.2 4.6.3.9.9 2.2 1.6 3.6.8 1.6 2 3.7 2.5 5.1M446.4 355.3c0 8.9 1.6 19.6 3.6 29.4.8 4.2 1.4 8.3 2.3 12.1.3 1.2.5 2.3.8 3.4.9 4 2.1 7.6 2.6 11.5.1.4.1.8.1 1.2.3 3.9 1.5 7.5 2.4 11.3.2.9.3 1.8.5 2.7.2 1.6.4 3.2.8 4.7.2.8.8 2.2 1.5 3.7.8 1.9 1.9 4 2.2 5.2M442.5 356.3c-1.2 14.1 3.2 31.6 5.6 45.3.8 4.4 2.1 8.4 2 13-.1 4 .9 7.8 1.4 11.8.4 2.5.1 5.3.6 7.7.4 1.8 3 7.3 3.3 9.2M438.6 356.6c-.6 9.2 1.2 20.1 2.8 30.1.8 5.2 1.6 10.3 2.3 15 .5 3.7 1.4 7.2 1.6 10.9 0 .7.1 1.3 0 2-.1 4 .6 7.8 1.1 11.7.3 2.4.1 5 .4 7.4v.3c.4 1.9 2.7 7.4 2.6 9.2M434.6 356.9c-.5 9.1 1.5 20.2 2.8 29.9.7 5.2 1.2 10.2 1.7 15 .4 3.7 1 7.2 1.2 10.9v2c-.1 4 .4 7.7.7 11.7.2 2.4 0 5 .3 7.4v.3c.3 2 2.4 7.5 1.9 9.2M430.6 357.3c-.4 9 1.9 20.3 2.8 29.8.5 5.1.8 10.1 1.1 14.9.2 3.7.7 7.2.8 10.8v2c-.1 3.9.2 7.7.4 11.6.1 2.4-.1 4.9.2 7.4v.2c.3 2.2 2 7.5 1.2 9.2M426.5 357.6c-.3 8.9 2.2 20.4 2.8 29.6.3 5.1.4 10 .5 14.9.1 3.6.3 7.2.4 10.8v2c-.1 3.9 0 7.7 0 11.6 0 2.4-.1 4.9 0 7.3v.2c.2 2.3 1.7 7.6.5 9.1M422.4 357.9c-.1 8.8 2.5 20.5 2.7 29.4.1 5 0 10-.1 14.8 0 3.6 0 7.2.1 10.8v2c-.1 3.9-.2 7.7-.3 11.5-.1 2.4-.2 4.9-.1 7.3v.2c.1 2.4 1.4 7.7-.2 9.1M417.5 358.3c0 8.7 2.8 20.6 2.7 29.3-.1 8.5-1 17-1 25.6 0 6.9-1 13.7-.9 20.7 0 2.4 1.1 7.9-.9 9.4M412.5 357.8c-.2 3.2.1 7.1.4 10.9.6 6.9 1.2 14.1.9 20.2-.1 2.6-.2 5.2-.5 7.7s-.6 5.1-.8 7.6c-.3 3.1-.6 6.3-.7 9.4-.1 3-.4 6.1-.7 9.1-.3 3.7-.7 7.3-.9 10.9-.1 2.4.6 7.5-1.2 9.1M407.3 357.3c-.3 3.4-.2 7.7 0 11.5.3 7.2.5 14.8 0 21.3-.2 2.5-.3 5.1-.7 7.5-.4 2.5-.8 4.9-1.2 7.4-.4 3.1-.9 6.1-1.2 9.1-.3 2.9-.7 5.9-1 8.9-.4 3.6-.9 7.1-1.3 10.6-.3 2.5.2 7-1.5 8.9M401.7 356.8c-.5 3.5-.5 8.2-.4 12.1 0 7.6-.2 15.5-1 22.5-.3 2.4-.4 4.9-.9 7.3-.5 2.4-1.1 4.7-1.6 7.1-.6 3-1.2 5.9-1.6 8.8-.4 2.8-.9 5.7-1.4 8.6-.5 3.5-1.1 6.9-1.7 10.3-.4 2.5-.3 6.6-1.8 8.7M396 356.3c-.7 3.7-.7 8.7-.9 12.7-.3 7.9-.8 16.2-2 23.7-.4 2.4-.5 4.8-1.1 7.1-.6 2.3-1.4 4.5-2 6.8-.7 2.9-1.4 5.7-2.1 8.5-.6 2.7-1.2 5.5-1.7 8.3-.6 3.4-1.3 6.7-2.1 10-.6 2.6-.8 6.2-2.1 8.5M390.2 355.8c-.8 3.8-1 9.3-1.3 13.3-.6 8.2-1.5 16.8-2.9 24.8-.4 2.3-.6 4.7-1.3 6.9-.7 2.2-1.6 4.3-2.3 6.6-.9 2.8-1.7 5.5-2.5 8.2-.7 2.6-1.4 5.3-2 8.1-.7 3.3-1.5 6.5-2.4 9.7-.7 2.6-1.3 5.7-2.3 8.2M384.5 355.3c-1 4-1.3 9.8-1.7 14-.9 8.6-2.1 17.5-3.9 26-.5 2.2-.7 4.6-1.5 6.7-.8 2.1-1.9 4.1-2.7 6.3-2 5.3-4 10.2-5.3 15.7-1.4 5.9-3.7 11.5-5.4 17.4M379.9 353.6c-1.6 3.8-2.6 9.5-3.7 13.8-.7 2.8-1.3 5.7-1.9 8.4-1 4.6-2.2 9.1-3.4 13.6-.4 1.4-.8 2.9-1.2 4.4-.7 2.3-1.1 4.7-2.1 6.9-.4.8-.8 1.7-1.3 2.5-.7 1.3-1.5 2.5-2.1 3.9-.6 1.3-1.1 2.6-1.6 3.8-.8 1.7-1.6 3.3-2.3 4.9-.5 1.2-1 2.6-1.4 3.9-.4 1.1-.8 2.3-1.2 3.4-.9 2.7-2 5.4-3.1 8-.8 1.8-1.5 3.5-2.2 5.3-.5 1.4-1 2.6-1.7 4.3M375.2 351.9c-2.1 3.7-4 9.2-5.7 13.7-1.1 2.9-2 5.8-2.9 8.5-1.5 4.6-3.1 9.3-4.8 13.9-.5 1.4-1 3-1.6 4.5-.8 2.4-1.5 4.9-2.7 7-.5.9-1 1.7-1.5 2.5-.9 1.3-1.8 2.5-2.5 3.9-.7 1.3-1.2 2.7-1.9 3.9-.9 1.7-2 3.3-2.9 4.9-.7 1.2-1.1 2.7-1.7 4-.5 1.2-1 2.3-1.5 3.5-1.1 2.8-2.5 5.5-3.9 8.1-.9 1.8-1.9 3.6-2.6 5.5-.6 1.4-1.1 2.4-2.1 4.4M370.5 350.3c-2.7 3.5-5.3 8.9-7.6 13.5-1.5 2.9-2.8 5.9-3.9 8.6-2 4.7-4 9.4-6.1 14.1-.6 1.4-1.3 3-2 4.6-1 2.4-2 5-3.3 7.2-.5.9-1.1 1.7-1.7 2.5-1 1.3-2 2.4-2.9 3.9-.8 1.3-1.3 2.8-2.1 4.1-1.1 1.8-2.4 3.3-3.4 4.9-.8 1.2-1.3 2.8-2 4.1l-1.8 3.6c-1.4 2.8-3 5.6-4.6 8.3-1.1 1.8-2.2 3.7-3.1 5.6-.6 1.4-1.1 2.2-2.4 4.5M365.9 348.6c-3.2 3.4-6.6 8.6-9.6 13.4-1.9 3-3.5 6-4.9 8.7-2.4 4.8-4.9 9.6-7.4 14.4-.8 1.5-1.5 3.1-2.3 4.8-1.2 2.5-2.4 5.1-3.9 7.4-.6.9-1.2 1.8-1.9 2.6-1.1 1.3-2.3 2.4-3.3 3.9-.9 1.3-1.4 2.9-2.3 4.2-1.2 1.8-2.7 3.3-4 4.9-.9 1.2-1.5 2.9-2.2 4.3l-2.1 3.6c-1.7 2.9-3.5 5.7-5.4 8.4-1.3 1.8-2.5 3.7-3.5 5.7-.7 1.4-1.2 2-2.8 4.6M361.2 346.9c-3.8 3.2-7.9 8.3-11.6 13.2-2.2 3-4.3 6.1-5.9 8.8-2.9 4.9-5.8 9.8-8.8 14.7a72 72 0 0 0-2.7 4.9c-1.4 2.6-2.8 5.3-4.4 7.6-.7.9-1.4 1.8-2.1 2.6-1.3 1.4-2.6 2.4-3.7 3.9-.9 1.4-1.6 3-2.5 4.3-1.3 1.9-3.1 3.3-4.5 4.9-1 1.2-1.6 3-2.5 4.4-.8 1.2-1.6 2.5-2.4 3.7-1.9 2.9-4 5.8-6.2 8.5-1.5 1.8-2.8 3.8-3.9 5.8-.7 1.4-1.3 1.8-3.1 4.7M356.5 345.3c-7 5-15.5 14.8-20.4 22-3.4 4.9-6.7 9.9-10.1 14.9-3.1 4.5-6.4 11.5-10.5 15.4-1.4 1.4-2.9 2.3-4.1 4-1 1.4-1.7 3.1-2.8 4.4-1.5 1.9-3.5 3.3-5.1 4.9-1.1 1.2-1.8 3.2-2.7 4.5-3 4.3-6.1 8.5-9.6 12.3-1.6 1.8-3.2 3.9-4.3 5.9-.8 1.4-1.4 1.6-3.5 4.7M351.9 343.9c-3 2.4-6.7 5.3-10 8.4-4.6 4.4-9 9.2-12.4 13.3l-1.2 1.5c-3.5 4.3-7 8.5-10.6 12.7-3.7 4.3-7.7 10.7-12.2 14.6-.7.6-1.4 1.1-2.1 1.7-.8.7-1.6 1.3-2.4 2.2-1.2 1.4-2 2.9-3.2 4.3-1.7 1.9-3.7 3.3-5.4 4.9-1.2 1.2-2.1 3.1-3.2 4.4-.9 1.2-1.9 2.3-2.8 3.5-2.5 3-5.1 6-7.9 8.8-.9.9-1.7 1.8-2.5 2.8-.8.9-1.6 2.1-2.3 3.2-1 1.5-1.9 2-3.9 4.7M347.7 342.2c-3 2.7-7.1 5.4-10.6 8.4-4.9 4.4-9.7 9-13.7 13L322 365c-4 4.1-8 8.2-12.1 12.1-4.3 4.2-9 9.9-14 13.8-.8.6-1.5 1.1-2.3 1.7-.9.7-1.8 1.3-2.6 2.2-1.3 1.3-2.4 2.8-3.7 4.2-1.8 1.8-4 3.3-5.8 5-1.3 1.2-2.4 3-3.6 4.3-1 1.1-2.1 2.3-3.1 3.4-2.8 3-5.7 5.9-8.6 8.7-.9.9-1.9 1.8-2.7 2.8-.8.9-1.7 2-2.6 3.2-1.2 1.6-2.4 2.4-4.3 4.7M344 340.1c-3 3.1-7.6 5.6-11.3 8.4-5.2 4.3-10.4 8.7-15 12.7-.5.5-1 .9-1.6 1.4-4.5 3.9-9 7.8-13.6 11.5-5 4-10.3 9.1-15.8 13-.8.6-1.6 1.1-2.4 1.7-1 .7-1.9 1.3-2.8 2.1-1.5 1.3-2.7 2.7-4.2 4-2 1.8-4.2 3.3-6.2 5-1.5 1.2-2.7 2.9-4.1 4.2-1.1 1.1-2.3 2.2-3.5 3.4-3.1 2.9-6.2 5.8-9.4 8.7-1 .9-2 1.8-2.9 2.8-.8.8-1.8 2-2.8 3.2-1.5 1.7-3 2.8-4.7 4.6M340.8 337.8c-3 3.4-8.1 5.7-11.9 8.4-5.5 4.2-11.1 8.5-16.3 12.4-.6.4-1.1.9-1.7 1.3-5 3.8-10 7.4-15.1 10.8-5.7 3.9-11.6 8.4-17.5 12.2-.9.6-1.7 1.1-2.6 1.6-1 .7-2 1.3-3 2.1-1.6 1.2-3.1 2.6-4.7 3.9-2.2 1.7-4.4 3.3-6.6 5-1.6 1.3-3 2.8-4.5 4.1-1.3 1.1-2.5 2.2-3.8 3.3-3.4 2.9-6.7 5.7-10.1 8.6-1.1.9-2.1 1.8-3.1 2.8-.8.7-1.9 1.9-3.1 3.2-1.7 1.8-3.5 3.3-5.1 4.6M338 335.2c-3 3.7-8.5 5.9-12.6 8.4-5.8 4.2-11.8 8.3-17.6 12.1-.6.4-1.3.8-1.9 1.2-5.4 3.6-11 7-16.6 10.2-6.4 3.7-12.9 7.6-19.3 11.4-.9.5-1.8 1.1-2.7 1.6-1.1.7-2.2 1.3-3.2 2-1.8 1.2-3.4 2.5-5.1 3.7-2.3 1.7-4.7 3.3-6.9 5.1-1.7 1.3-3.3 2.7-5 4-1.4 1.1-2.7 2.2-4.1 3.2-3.7 2.9-7.2 5.7-10.8 8.6-1.1.9-2.3 1.8-3.4 2.8-.7.6-2 1.9-3.3 3.2-1.9 1.9-4 3.7-5.5 4.6M335.5 332.3c-3 4-9 6-13.3 8.4-6.8 4.6-13.8 8.9-20.9 13-13.6 8-28.2 14-42 21.7-9.3 5.2-17.6 11.6-26.2 17.8-5.2 3.7-10.1 7.4-15.1 11.3-1.8 1.4-7.3 7.1-9.4 7.8M332.9 329.3c-2.7 2.9-7.4 5-11.3 6.7-.8.4-1.6.7-2.3 1.1-7 4.1-14.1 8.1-21.3 11.9-13.4 7.2-27.7 12.8-41.2 19.9-.5.2-.9.5-1.4.7-8.6 4.5-16.3 10.1-24.3 15.3-.8.5-1.7 1.1-2.5 1.6l-2.7 1.8c-2.6 1.7-5.3 3.3-7.9 5-1.7 1.1-3.4 2.3-5.1 3.4-2.1 1.4-7.4 6.3-9.8 7.1M330.2 326.3c-3 2.6-7.7 4.8-11.6 6.2-.8.3-1.6.6-2.4 1-7.2 3.6-14.4 7.3-21.8 10.9-13.7 6.7-28.1 12-41.8 18.7-.5.2-.9.5-1.4.7-8.7 4.4-16.5 9.8-24.7 14.6-.9.5-1.7 1-2.6 1.5-.9.6-1.8 1.1-2.8 1.7-2.7 1.6-5.5 2.9-8.2 4.3-1.8 1-3.5 2-5.3 3-2.5 1.4-7.5 5.6-10.2 6.5M327.5 323.3c-3.2 2.2-8 4.6-11.9 5.6l-2.4.9c-7.4 3.1-14.8 6.5-22.2 9.8-13.9 6.3-28.5 11.2-42.4 17.6-.5.2-1 .4-1.4.7-8.7 4.2-16.7 9.6-25.2 13.9-.9.4-1.7.9-2.6 1.4-.9.5-1.9 1.1-2.8 1.6-2.8 1.4-5.7 2.4-8.5 3.7-1.8.8-3.6 1.8-5.5 2.6-2.9 1.4-7.7 4.8-10.6 5.9M324.9 320.3c-3.5 1.8-8.3 4.4-12.2 5.1-.8.2-1.6.5-2.4.7-7.6 2.6-15.1 5.7-22.6 8.7-14.1 5.8-28.9 10.4-42.9 16.5-.5.2-1 .4-1.4.6-8.8 4-17 9.3-25.7 13.2-.9.4-1.8.9-2.7 1.3-1 .5-1.9 1-2.9 1.5-2.9 1.3-5.9 2-8.8 3.1-1.9.7-3.7 1.5-5.7 2.2-3.2 1.3-7.8 4-11 5.2M322.2 317.3c-3.7 1.4-8.7 4.1-12.5 4.5-.8.2-1.7.4-2.5.6-7.8 2.2-15.4 4.9-23 7.7-14.4 5.3-29.3 9.6-43.5 15.4l-1.5.6c-8.9 3.8-17.2 9-26.1 12.4l-2.7 1.2c-1 .5-2 1-3 1.4-2.9 1.2-6.1 1.6-9.1 2.4-1.9.5-3.9 1.2-5.8 1.9-3.6 1.2-7.9 3.3-11.4 4.6M319.5 314.3c-4 1-9 3.9-12.7 4-8.8 1.7-17.5 4.1-26 7.1-14.7 4.5-29.7 8.8-44.1 14.2-9.6 3.6-18.4 9.1-28.1 12.3-2 .7-3.8 1.7-5.8 2.4-3 1-6.3 1.2-9.4 1.8-5.9 1.2-12.2 3.3-17.9 5.4M174.4 352.9c4.7-1.5 9.3-3 14.3-4.1 1.2-.3 2.4-.5 3.5-.7 3.1-.6 6.3-.7 9.3-1.7 2-.6 3.9-1.5 5.9-2.1 9.7-2.8 18.7-7.6 28.3-10.7 5.7-1.8 11.4-3.5 17.2-5.1 8.9-2.5 18-4.8 26.9-7.5 1.2-.4 2.4-.8 3.6-1.1 7.4-2.3 14.7-3.8 22.3-5.2h.5c3.8-.4 8.3-2.8 12.2-3.6M173.2 344.1c5-1.3 9.1-2.5 14.3-3.6 1.2-.2 2.4-.5 3.5-.7 3.1-.5 6.3-.7 9.3-1.5 2-.5 3.9-1.3 5.9-1.8 9.7-2.4 18.9-6.4 28.5-9 5.7-1.5 11.5-3 17.2-4.3 8.8-2.1 18-4.2 26.9-6.7 1.2-.3 2.4-.7 3.6-1 7.5-2.1 14.7-3.1 22.3-4.5h.5c3.8-.5 8.3-2.6 12.2-3.2M172 335.4c5.2-1.1 9-2.1 14.3-3 1.2-.2 2.3-.4 3.5-.6 3.1-.5 6.2-.7 9.3-1.4 2-.4 3.9-1.1 5.9-1.5 9.7-2.1 19-5.3 28.7-7.4 5.7-1.3 11.5-2.4 17.3-3.5 8.8-1.6 18-3.6 26.8-5.9l3.6-.9c7.5-1.9 14.6-2.5 22.2-3.9.2 0 .3 0 .5-.1 3.9-.5 8.2-2.4 12.2-2.8M170.9 326.7c5.4-.8 8.8-1.6 14.3-2.5 1.2-.2 2.3-.4 3.5-.5 3.1-.4 6.2-.7 9.2-1.3 2-.4 4-.9 6-1.2 9.7-1.7 19.2-4.1 28.9-5.7 5.8-1 11.5-1.8 17.3-2.6 8.7-1.2 18-3.1 26.8-5.1 1.2-.3 2.4-.6 3.6-.8 7.6-1.7 14.5-1.9 22.2-3.2.2 0 .3 0 .5-.1 4-.6 8.1-2.1 12.2-2.4M169.7 318c5.7-.6 8.6-1.2 14.3-2 1.2-.2 2.3-.3 3.5-.5 3-.4 6.1-.7 9.2-1.1l6-.9c9.7-1.3 19.4-2.9 29.1-4.1 5.8-.7 11.6-1.3 17.4-1.8 8.7-.8 18-2.5 26.8-4.3 1.2-.2 2.4-.5 3.6-.7 7.7-1.6 14.5-1.2 22.1-2.5.2 0 .3 0 .5-.1 4.1-.6 8.1-1.9 12.2-2M168.5 309.3c5.9-.4 8.5-.7 14.3-1.4 21.6-2.5 43.6-4.4 65.3-5.5 9.8-.5 20.6-2.4 30.3-4.1 7.9-1.4 14.7-.5 22.6-1.9 4.1-.7 8-1.7 12.2-1.6M170.9 302.3c5.7-.3 8.6-.6 14.2-1.2 21.5-2.1 43.3-3.7 64.9-4.5 9.8-.4 20.4-2 30.1-3.5 2.4-.4 4.7-.6 7-.7 5.1-.3 10 0 15.5-.8 3.9-.6 8.3-1.6 12.1-1.2M173.4 295.3c5.5-.3 8.7-.5 14.1-.9 21.4-1.7 43-2.9 64.4-3.6 9.8-.3 20.2-1.6 30-2.8 2.4-.3 4.7-.4 7-.5 5.1-.2 10 .2 15.4-.4 3.6-.4 8.5-1.6 11.9-.8M175.8 288.3c5.2-.2 8.8-.4 14.1-.7 21.3-1.3 42.7-2.2 64-2.7 9.8-.2 20-1.2 29.8-2.1 2.4-.2 4.6-.3 6.9-.4 5.1-.2 10 .4 15.3-.1 3.3-.3 8.8-1.5 11.7-.3M178.2 281.4c5-.1 8.9-.3 14-.5 21.1-.9 42.4-1.4 63.5-1.8 9.8-.2 19.9-.8 29.6-1.4 2.3-.2 4.6-.2 6.9-.3 5.1-.1 10 .6 15.2.3 3.1-.2 9.1-1.5 11.6.1M180.6 274.5c4.8-.1 9.1-.1 13.9-.2 21-.4 42.1-.7 63.1-.8 9.8-.1 19.7-.4 29.4-.7 2.3-.1 4.6-.1 6.8-.2 5.1-.1 10 .8 15.1.6 2.8-.1 9.3-1.4 11.4.5M183.1 266.9c37.5 0 75 .2 112.4 0 5.1 0 9.9 1 15 .9 2.5 0 9.6-1.4 11.3.9M185.4 261c.3 0 .6-.1.9-.1 30.3-.1 60.5 1.1 90.8 1.3 6.2 0 12.3.1 18.5.1 5 0 9.8.9 14.8.9 2.4 0 6.3.2 9.6.5 2.1.3 4.1.7 5.3 1.8M187.6 255l.6-.3c29.7-.1 59.4 2 89.1 2.5l18.1.3c4.9.1 9.6.8 14.5.9 3.3.1 8 .8 12 1.5 2.5.4 5 1 6.7 2.2M189.9 249.1c.1-.1.2-.3.3-.4 29.2-.2 58.3 2.9 87.4 3.7 5.9.2 11.9.4 17.8.6 4.8.1 9.5.8 14.2.9 4.2.1 9.6 1.5 14.3 2.4 2.9.6 5.8 1.3 8 2.7M192.1 243.2v-.6c28.6-.3 57.1 3.8 85.7 4.9 5.8.2 11.6.5 17.4.8 4.7.2 9.3.7 14 .9 5.1.2 11.3 2.1 16.6 3.4 3.3.8 6.6 1.6 9.4 3.2"/>
    <path d="M194.5 237.2c-.1-.2-.2-.5-.3-.7 28.1-.4 56 4.7 84 6.1 5.7.3 11.4.6 17.1 1 4.6.3 9.1.7 13.7.9 6 .3 12.9 2.8 18.9 4.3 3.7.9 7.5 1.8 10.7 3.6"/>
    <path d="M196.9 231.3l-.6-.9c27.5-.4 54.9 5.7 82.3 7.3 10.1.6 20.1 1.5 30.2 2 6.9.3 14.6 3.4 21.3 5.2 4.1 1.1 8.3 2.1 12.1 4.1"/>
    <path d="M201.1 223.2c-.1-.2-.2-.5-.3-.7 3.7-.1 7.4.1 11.1.4 11.1 1.1 22.2 2.8 33.3 4.6 12.1 1.9 24.3 3.9 36.4 5.2 4 .4 8 .9 12 1.4 5.9.7 11.8 1.3 17.6 2 2 .2 4 .6 6.1 1.2 4.1 1.2 8.4 2.7 12.5 4.1 1.1.4 2.3.8 3.6 1.2 4.3 1.4 9 2.8 12.7 4.4"/>
    <path d="M205.2 215.1v-.6c3.7-.1 7.3.2 10.9.7 10.9 1.7 21.7 3.8 32.6 6 11.9 2.3 23.8 4.6 35.8 6.4 3.9.6 7.8 1.2 11.8 1.9 5.8 1 11.5 1.8 17.2 2.9 2.1.4 4.2.9 6.3 1.6 4.2 1.6 8.7 3.2 13 4.8 1.1.4 2.4.9 3.7 1.4 4.5 1.6 9.7 3.4 13.3 4.7"/>
    <path d="M209.5 207c.1-.2.1-.3.2-.5 3.6-.1 7.2.2 10.8 1 10.6 2.3 21.3 4.9 31.9 7.4 11.7 2.8 23.4 5.3 35.1 7.6 3.8.8 7.7 1.5 11.5 2.4 5.7 1.2 11.3 2.2 16.9 3.7 2.1.6 4.4 1.1 6.5 2 4.3 1.9 9.1 3.7 13.5 5.5 1.1.4 2.4 1 3.8 1.6 4.6 1.9 10.5 4 14 5"/>
    <path d="M213.8 198.9c.2-.1.3-.2.5-.3 3.6-.1 7.2.3 10.6 1.3 10.4 2.9 20.8 5.9 31.3 8.8 11.4 3.2 23 6 34.5 8.8 3.8.9 7.5 1.9 11.3 2.9 5.6 1.5 11.1 2.7 16.5 4.6 2.2.8 4.6 1.3 6.7 2.4 4.4 2.2 9.4 4.1 14 6.1 1.1.5 2.4 1.1 4 1.8 4.8 2.1 11.2 4.7 14.6 5.3M218.1 190.8c.2-.1.5-.1.7-.2 3.6-.2 7.1.4 10.5 1.6 10.1 3.5 20.3 6.9 30.6 10.2 11.2 3.6 22.5 6.7 33.8 10 3.7 1.1 7.4 2.2 11.1 3.4 5.5 1.7 10.8 3.3 16.1 5.4 2.3.9 4.8 1.6 7 2.8 4.5 2.6 9.7 4.6 14.5 6.8 1 .5 2.5 1.2 4.1 1.9 5 2.3 11.9 5.3 15.3 5.7M222.3 182.7c3.9-.3 7.7.2 11.3 1.8 9.9 4 19.9 7.9 29.9 11.6 14.6 5.2 29.4 9.7 44 15.1 5.4 2 10.5 3.8 15.7 6.3 2.4 1.1 5 1.8 7.2 3.2 4.6 2.9 10 5 15 7.5 4 2 15.8 8.1 20.2 8.1M229.5 174.5c3.7.1 7.3.9 10.8 2.5 9.5 4.4 19 8.8 28.7 12.9 5 2.1 10.1 4.1 15.3 6.1 6.5 2.5 13.1 4.7 19.5 7.3 2.4 1 4.8 2 7.3 3 .2.1.4.2.6.2 3.1 1.3 6 2.5 9 3.8 2.2.9 4.1 1.8 6.2 3 2.3 1.3 4.7 2.2 6.8 3.6 4.5 3.2 9.4 5.6 14 8.5 3.9 2.4 14.4 8.3 19.4 9.1M236.7 166.4c3.6.5 7 1.6 10.4 3.3 9.1 4.8 18.2 9.6 27.5 14.2 4.8 2.4 9.7 4.6 14.7 6.7 6.3 2.7 12.8 5 19 7.8 2.4 1.1 4.6 2.2 7 3.3l.6.3c3 1.3 5.8 2.8 8.8 4 2.2 1 4 1.8 6 3.1 2.2 1.4 4.5 2.5 6.4 4.1 4.4 3.5 8.8 6.3 13 9.4 3.9 2.9 13 8.5 18.6 10M243.9 158.2c3.4.9 6.7 2.2 9.9 4.1 8.8 5.1 17.4 10.5 26.2 15.4 4.6 2.6 9.3 5 14.1 7.4 6 2.9 12.5 5.2 18.5 8.3 2.3 1.2 4.4 2.4 6.8 3.5l.6.3c2.9 1.4 5.6 3 8.5 4.3 2.2 1 3.9 1.9 5.8 3.3 2.1 1.6 4.2 2.9 6 4.5 4.2 3.9 8.1 7 12 10.4 3.8 3.3 11.7 8.7 17.8 11"/>
    <path d="M251.1 150.1c3.2 1.3 6.4 2.9 9.4 4.9 8.4 5.5 16.6 11.3 25 16.7 4.4 2.8 8.9 5.5 13.5 8 5.8 3.2 12.3 5.5 18 8.8 2.2 1.3 4.2 2.6 6.5 3.8.2.1.4.2.5.3 2.8 1.5 5.4 3.3 8.2 4.6 2.3 1.1 3.7 1.9 5.6 3.5 2 1.7 4 3.2 5.6 4.9 4.1 4.2 7.5 7.7 11 11.3 3.7 3.8 10.3 8.8 17 12"/>
    <path d="M258.4 142c3.1 1.7 6 3.6 9 5.7 8 5.9 15.8 12.2 23.8 18 4.2 3 8.5 6 12.9 8.7 5.6 3.4 12 5.7 17.5 9.3 2.1 1.4 4 2.8 6.2 4.1.2.1.3.2.5.3 2.7 1.6 5.2 3.5 7.9 4.9 2.3 1.1 3.6 2 5.4 3.7 1.9 1.9 3.7 3.6 5.2 5.4 3.9 4.5 6.8 8.5 10 12.3 3.6 4.3 9 9 16.3 12.9"/>
    <path d="M265.6 133.8c15.2 10.8 27.9 24.8 43.4 35.1 5.4 3.6 11.7 6 16.9 9.8 2 1.5 3.8 3 6 4.4 2.8 1.7 5.3 4 8.1 5.5 2.3 1.2 3.5 2 5.2 3.8 12.7 13.8 12.3 22.9 29.3 32.9"/>
    <path d="M276.4 129.7c3.6 3.2 6.8 6.1 10.5 9.3 2.8 2.4 5.5 4.9 8.2 7.4 5.1 4.7 10.1 9.4 15.2 13.8 2.1 1.8 4.3 3.6 6.5 5.3 1.7 1.3 3.4 2.5 5.1 3.7 3.4 2.3 6.8 4.4 10 7.1 1.8 1.6 3.5 3.1 5.4 4.6 1.1.8 2.1 1.7 3.1 2.5 1.4 1.2 2.8 2.3 4.3 3.2 2.1 1.3 3.2 2.2 4.7 4 .9 1.1 1.8 2.2 2.6 3.3 1.7 2.2 3.2 4.2 4.5 6.1 2 2.9 3.6 5.6 5.5 8.1 4 5.3 7.5 9.8 15.9 14.5M287.2 125.6c3.3 3.5 5.9 6.2 9.5 9.6 2.6 2.4 5.2 4.9 7.8 7.3 4.8 4.6 9.5 9.4 14.2 14 1.9 1.8 3.9 3.7 5.8 5.6 1.5 1.4 3 2.7 4.5 4 2.9 2.5 5.9 4.9 8.7 7.7 1.6 1.6 3.1 3.3 4.9 4.8 1 .8 1.9 1.7 2.8 2.6 1.3 1.2 2.5 2.4 3.9 3.4 1.8 1.3 2.9 2.4 4.3 4.1.9 1.1 1.7 2.2 2.4 3.3 1.5 2.2 3 4.1 4.4 6 2 2.7 3.5 5.4 5.5 7.8 4.5 5.4 7.2 9.7 15.6 13.9M298 121.5c3 3.9 4.9 6.4 8.6 10 2.5 2.4 5 4.8 7.4 7.3 4.6 4.6 8.9 9.5 13.1 14.2 1.7 1.9 3.5 3.9 5.2 5.8 1.3 1.5 2.6 2.9 3.8 4.3 2.4 2.8 5 5.5 7.4 8.4 1.4 1.7 2.8 3.4 4.3 5 .9.9 1.7 1.8 2.5 2.8 1.1 1.3 2.3 2.5 3.5 3.6 1.6 1.4 2.6 2.6 3.9 4.3.8 1.1 1.5 2.2 2.2 3.3 1.4 2.2 2.8 3.9 4.2 5.8 1.9 2.6 3.4 5.2 5.5 7.5 4.9 5.4 6.9 9.5 15.3 13.4M308.9 117.4c2.7 4.3 4 6.6 7.6 10.3 2.4 2.4 4.7 4.8 7 7.3 4.4 4.6 8.3 9.5 12.1 14.4 1.5 1.9 3.1 4 4.6 6.1 1.1 1.6 2.3 3.1 3.2 4.6 1.9 3 4 6 6.2 9 1.2 1.8 2.4 3.5 3.8 5.2.8.9 1.5 1.9 2.2 2.9 1 1.3 2 2.6 3.1 3.8 1.3 1.5 2.3 2.8 3.4 4.5.7 1.1 1.3 2.2 1.9 3.3 1.2 2.2 2.7 3.8 4.1 5.7 1.9 2.5 3.3 5.1 5.5 7.2 5.4 5.4 6.7 9.4 15 12.9M319.7 113.4c2.3 4.6 3 6.8 6.6 10.6 2.3 2.4 4.5 4.8 6.7 7.2 4.1 4.6 7.7 9.5 11 14.6 1.2 1.9 2.7 4.1 3.9 6.3 1 1.7 1.9 3.4 2.6 4.9 1.4 3.3 3.1 6.5 4.9 9.7 1 1.8 2.1 3.6 3.2 5.4.6 1 1.3 2 1.9 3 .9 1.4 1.8 2.7 2.7 4 1.1 1.5 2.1 3 3 4.6.6 1.1 1.2 2.2 1.7 3.3 1.1 2.2 2.5 3.7 3.9 5.5 1.8 2.4 3.3 4.9 5.4 6.9 5.8 5.5 6.4 9.2 14.6 12.4"/>
    <path d="M330.5 109.3c2 5 2.1 7 5.6 10.9l6.3 7.2c3.9 4.6 7.2 9.5 10 14.8 1.8 3.5 4.2 8 5.2 11.8 1.7 6.8 4.7 12.9 8 19.1 2.2 4.1 4.6 7.9 6.4 12.2.9 2.2 2.3 3.6 3.8 5.4 1.8 2.3 3.2 4.7 5.4 6.6 6.3 5.5 6.1 9.1 14.3 11.9"/>
    <path d="M339.5 108.9c1.4 3.5 1.8 7.3 3.9 9.6.2.3.5.7.8 1.1 1.9 2.4 3.8 4.8 5.7 7.3 1.7 2.2 3.3 4.4 4.8 6.7 1.7 2.6 3.2 5.2 4.6 7.9.8 1.6 1.8 3.4 2.7 5.2 1.1 2.1 2 4.3 2.5 6.3.5 1.9 1 3.8 1.6 5.6 1.5 4.5 3.5 8.8 5.6 13.1.6 1.2 1.1 2.3 1.7 3.5 1.4 2.8 2.8 5.6 3.9 8.7.8 2.1 2.1 3.6 3.3 5.4 1.6 2.3 2.8 4.7 4.7 6.7 2 2.1 3.1 3.9 4.3 5.5.9 1.2 1.7 2.2 2.8 3.2 1.3 1.3 2.9 2.6 5.7 3.5"/>
    <path d="M348.5 108.6c1 2.6 1.6 7.9 3.2 9.4.2.4.5.7.7 1.1 1.7 2.4 3.4 4.9 5.2 7.3 1.6 2.2 3.1 4.4 4.5 6.7 1.6 2.5 3 5.1 4.4 7.7.8 1.6 1.8 3.3 2.7 5 1.1 2.1 2.1 4.1 2.6 6.2.5 1.9.9 3.7 1.4 5.5 1.4 4.4 3.2 8.6 5 12.9.5 1.2 1 2.3 1.5 3.4 1.2 2.8 2.4 5.6 3.4 8.6.7 2.1 1.8 3.6 2.8 5.4 1.3 2.3 2.4 4.7 4 6.8 1.7 2.1 2.5 4 3.5 5.7.7 1.2 1.6 2.2 2.5 3.3 1.2 1.4 2.5 3 5.1 3.8M357.5 108.3c.6 1.6 1.4 8.6 2.4 9.1.2.4.4.7.6 1.1 1.4 2.5 3 4.9 4.6 7.4 1.4 2.2 2.9 4.4 4.2 6.6 1.5 2.5 2.9 5 4.2 7.6.8 1.5 1.7 3.2 2.6 4.8 1.1 2 2.1 3.9 2.6 6 .4 1.8.8 3.6 1.3 5.4 1.2 4.3 2.9 8.4 4.5 12.7.4 1.1.8 2.3 1.3 3.4 1 2.8 2 5.6 2.9 8.5.6 2 1.5 3.6 2.3 5.4 1.1 2.3 2 4.7 3.3 6.9 1.3 2.1 1.8 4 2.8 5.8.6 1.2 1.4 2.2 2.2 3.3 1.1 1.5 2.1 3.3 4.6 4M366.5 107.9c.3.6 1.1 9.3 1.7 8.9.2.4.3.7.5 1.1 1.2 2.5 2.6 5 4.1 7.4 1.3 2.2 2.6 4.4 3.8 6.6 1.4 2.5 2.7 4.9 4 7.4.8 1.5 1.7 3.1 2.6 4.7 1.1 1.9 2.2 3.7 2.7 5.8.4 1.7.6 3.5 1.1 5.3 1.1 4.2 2.6 8.3 3.9 12.4.4 1.1.7 2.2 1 3.4.8 2.8 1.6 5.6 2.3 8.4.5 2 1.2 3.6 1.9 5.4.9 2.3 1.6 4.7 2.6 6.9 1 2.1 1.2 4.1 2 6 .5 1.2 1.3 2.2 2 3.3 1 1.5 1.7 3.6 4.1 4.2M375.5 107.6c-.1-.4.9 9.9.9 8.7.1.4.3.7.4 1.1 1 2.5 2.2 5 3.5 7.5 1.2 2.2 2.4 4.4 3.5 6.5 1.3 2.4 2.5 4.8 3.9 7.2.8 1.5 1.7 3 2.6 4.5 1.1 1.9 2.2 3.6 2.7 5.6.4 1.7.5 3.4.9 5.1.9 4.2 2.3 8.1 3.3 12.2.3 1.1.6 2.2.8 3.3.6 2.8 1.2 5.5 1.8 8.3.4 1.9.9 3.6 1.4 5.5.6 2.3 1.2 4.7 1.9 7 .7 2.1.5 4.1 1.2 6.1.4 1.2 1.1 2.2 1.7 3.4.8 1.6 1.3 3.9 3.6 4.5M384.5 107.3c-.5-1.4.7 10.6.1 8.5 1.2 5.1 4.1 10.4 6.4 15.1 1.9 3.9 3.9 7.7 6.2 11.4 1.1 1.8 2.3 3.4 2.7 5.5.3 1.6.4 3.4.7 5 1 5.2 2.6 10.1 3.3 15.3 1 7 2.1 13.8 3.3 20.8.3 2.1-.1 4.2.4 6.2.3 1.2 1 2.2 1.5 3.4.7 1.7.9 4.2 3 4.7M417.2 202c-1.8-.7-1.9-3.1-2.5-4.8-.4-1.1-1-2.1-1.2-3.4-.4-2 0-4.1-.3-6.1-1-6.8-1.9-13.4-2.8-20.3-.6-5.1-1.9-9.9-2.8-14.9-.3-1.6-.3-3.3-.6-4.9-.4-2-1.3-3.6-2.3-5.4-1.9-3.7-3.6-7.5-5.2-11.3l-1.8-4.2c-1.4-3.4-2.7-6.9-3.6-10.4 0-.1 0-.2-.1-.3.4 1.5-.7-9.3-.3-8.3M422.2 200.9c-1.4-.9-1.5-3.1-2-4.8-.3-1.1-.8-2.1-1-3.3-.3-1.9 0-3.9-.3-5.9-.8-6.6-1.6-13.1-2.2-19.8-.5-5-1.5-9.7-2.2-14.6-.2-1.6-.2-3.2-.5-4.8-.3-2-1.1-3.6-1.8-5.4-1.5-3.7-2.8-7.4-4.1-11.2-.5-1.4-.9-2.8-1.4-4.2-1.1-3.3-2.1-6.8-2.9-10.2 0-.1 0-.2-.1-.3.2.9-.8-8.8-.5-8.2M427.1 199.7c-1.1-1.1-1.2-3.2-1.5-4.8-.2-1.1-.6-2.1-.7-3.3-.2-1.9 0-3.8-.2-5.7-.6-6.4-1.2-12.8-1.7-19.3-.4-4.8-1.2-9.5-1.7-14.2-.2-1.5-.2-3.1-.4-4.6-.2-1.9-.8-3.6-1.4-5.3-1.2-3.7-2.1-7.4-3.1-11.2-.3-1.4-.7-2.7-1.1-4.1-.8-3.3-1.5-6.8-2.2-10.1 0-.1 0-.2-.1-.3.1.3-.9-8.3-.6-8.1M432 198.6c-.7-1.3-.8-3.2-1-4.9-.2-1.1-.4-2.1-.5-3.2-.2-1.8 0-3.7-.1-5.6-.4-6.3-.8-12.5-1.1-18.7-.2-4.7-.8-9.2-1.1-13.9-.1-1.5-.1-3-.2-4.5-.1-1.8-.5-3.5-.9-5.3-.8-3.7-1.4-7.3-2.1-11.1-.2-1.3-.5-2.7-.7-4.1-.6-3.2-.9-6.7-1.5-9.9 0-.1 0-.2-.1-.2 0-.3-1-7.8-.8-8M437 197.4c-.4-1.5-.4-3.3-.5-4.9-.1-1.1-.2-2.1-.2-3.2-.1-1.8 0-3.6-.1-5.4-.2-6.1-.4-12.1-.5-18.2-.1-4.5-.4-9-.6-13.5-.1-1.5-.1-2.9-.1-4.4-.1-1.8-.3-3.5-.5-5.2-.4-3.6-.7-7.3-1-11-.1-1.3-.2-2.7-.4-4-.3-3.2-.2-6.6-.9-9.7v-.2c-.2-1-1.1-7.3-1-7.8M441.9 196.3v-68.5c0-3.1.4-6.5-.2-9.6-.2-1.2-1.2-7-1.2-8M450.2 112.6c-.1 1.2.4 6.3.4 7.7.1 2.7-.2 5.6-.4 8.4v.9c-.1 2.7-.2 5.3-.2 8-.2 7.7-.6 14.7-1.1 22.3-.3 5.3-.4 10.1-.7 15.4-.2 3.9-.5 8.2-.7 12.4-.1 2.9-.2 6-.5 9.1M460.2 114.9c-.3 1.3-.2 5.9-.4 7.5-.3 2.7-.7 5.5-1 8.1 0 .3-.1.6-.1.9-.2 2.6-.3 5.2-.4 7.9-.3 7.8-1.3 14.2-2.2 21.8-.7 5.4-.7 9.8-1.3 15.1-.4 3.7-1.1 7.9-1.3 12.1-.2 2.7-.3 5.8-1 8.9M470 117.3c-.4 1.5-.7 5.4-1.1 7.3-.6 2.6-1.2 5.4-1.6 7.9 0 .3-.1.6-.1.9-.3 2.6-.5 5.2-.6 7.8-.5 7.8-1.9 13.8-3.3 21.4-1 5.5-1 9.4-2 14.9-.6 3.4-1.6 7.7-2 11.8-.3 2.4-.5 5.6-1.5 8.6M479.9 119.6c-.5 1.6-1.2 5-1.9 7-.9 2.6-1.8 5.3-2.2 7.7-.1.3-.1.6-.2.9-.4 2.5-.7 5.1-.8 7.6-.6 7.9-2.6 13.3-4.4 20.9-1.3 5.6-1.3 9-2.7 14.6-.7 3.1-2.1 7.5-2.7 11.5-.3 2.2-.7 5.4-2 8.4M489.7 121.9c-.6 1.8-1.7 4.6-2.7 6.8-1.2 2.5-2.3 5.2-2.8 7.4-.1.3-.1.6-.2.9-.6 2.5-.8 5-1.1 7.5-.8 8-3.3 12.8-5.5 20.4-1.7 5.6-1.6 8.7-3.3 14.3-.9 2.8-2.5 7.2-3.3 11.3-.4 2-.8 5.2-2.5 8.2M499.5 124.3c-1.6 4-5.6 9.7-6.9 13.8-.8 2.7-1.2 5.4-1.5 8.3-1 8.1-3.9 12.4-6.6 20-2 5.7-1.8 8.4-4 14-1 2.6-3 7-4 11-.5 1.8-1 5-3 8M477 201.6c1.3-2.2 2.3-4.5 2.9-6.2.2-.6.3-1.1.5-1.5 1.3-3.8 3.4-8 4.6-10.6 1.5-3.2 2.1-5.5 2.9-8 .5-1.7 1.1-3.4 2-5.5 1.2-2.8 2.4-5.2 3.6-7.5 1.8-3.6 3.3-7 4.2-11.6 0-.2.1-.4.1-.7.4-1.8.9-3.6 1.5-5.4l.6-1.8c.8-2.1 2.3-4.7 3.8-7.2 1.2-2.2 2.6-4.6 3.5-6.3M480.4 203.9c1.1-2.2 2.4-4.3 3.1-6l.6-1.5c1.6-3.6 3.7-7.5 5.1-10.2 1.5-3 2.4-5.3 3.4-7.8.7-1.6 1.4-3.3 2.4-5.2 1.3-2.7 2.7-4.9 4.1-7.2 2-3.5 3.7-6.8 5-11.2.1-.2.1-.4.2-.6.6-1.8 1.2-3.5 2-5.1.2-.6.5-1.1.7-1.7 1-2.1 2.5-4.6 4-7.1 1.2-2 2.6-4.7 3.6-6.1M483.9 206.2c.9-2.2 2.5-4.1 3.4-5.8.3-.5.5-1 .7-1.4 1.8-3.4 4.1-7.1 5.7-9.9 1.6-2.8 2.6-5.1 3.8-7.5.8-1.6 1.7-3.2 2.7-5 1.5-2.5 3-4.7 4.6-6.8 2.2-3.3 4.1-6.7 5.8-10.7l.3-.6c.8-1.7 1.6-3.3 2.5-4.8.3-.5.6-1.1.9-1.6 1.2-2.1 2.7-4.5 4.2-6.9 1.2-1.9 2.6-4.8 3.8-6M487.3 208.6c.7-2.1 2.6-4 3.6-5.6.3-.5.6-.9.9-1.3 2.1-3.2 4.4-6.6 6.3-9.5 1.7-2.6 2.9-4.9 4.3-7.2 1-1.6 2-3.1 3.1-4.8 1.6-2.3 3.3-4.4 5-6.5 2.4-3.2 4.6-6.5 6.5-10.2l.3-.6c.9-1.6 1.9-3.1 3.1-4.5.3-.5.7-1 1-1.5 1.3-2.1 2.9-4.5 4.4-6.7 1.1-1.8 2.6-4.9 3.9-5.9M490.8 210.9c.5-2.1 2.6-3.8 3.9-5.4.3-.4.7-.8 1-1.2 2.3-3 4.7-6.2 6.8-9.1 1.7-2.4 3.2-4.6 4.8-6.9 1.1-1.6 2.3-3.1 3.5-4.6 1.8-2.1 3.6-4.1 5.5-6.1 2.6-3.1 5-6.3 7.3-9.8.1-.2.2-.4.4-.6 1.1-1.5 2.3-2.9 3.6-4.2.4-.5.7-1 1.1-1.5 1.5-2 3.2-4.4 4.6-6.6 1.1-1.6 2.6-4.9 4-5.7M494.3 213.2c.2-2.1 2.7-3.7 4.1-5.2 5-5.3 9.3-10.9 13.8-16.6 3.1-3.8 6.3-6.8 9.8-10.1 3-3.2 5.8-6.4 8.5-9.8 1.3-1.4 2.7-2.7 4.1-3.9 2.1-2.2 4.3-5.2 6-7.8 1-1.5 2.7-5 4.2-5.6M497.4 215.8c.4-2 2.7-3.6 4.1-5.1 4.8-5.1 9.3-10.4 13.9-15.7 3.1-3.5 6.4-6.4 9.8-9.6 3-3 5.8-6.1 8.5-9.3l.9-.9c.9-.9 2-1.9 3.2-2.8 2.1-2.1 4.3-4.8 6.1-7.3 1.2-1.6 2.8-4.7 4.1-5.4M500.5 218.3c.6-1.9 2.6-3.4 4-4.9 4.7-4.9 9.2-9.9 13.9-14.8 3.1-3.3 6.4-6.1 9.8-9 3-2.8 5.8-5.7 8.6-8.8l.9-.9c.9-.8 1.9-1.8 3.1-2.7 2.1-1.9 4.3-4.5 6.2-6.8 1.4-1.6 3-4.5 4-5.2M503.6 220.8c.7-1.8 2.6-3.3 4-4.7 4.6-4.8 9.2-9.4 13.9-14 3.2-3 6.4-5.7 9.8-8.4 3-2.6 5.9-5.4 8.6-8.2.3-.3.6-.6.9-.8.8-.7 1.9-1.6 3.1-2.6 2.1-1.8 4.4-4.2 6.3-6.3 1.5-1.7 3.2-4.2 4-5M506.8 223.3c.9-1.7 2.5-3.2 3.9-4.6 4.5-4.6 9.1-8.9 14-13.1 3.2-2.8 6.5-5.3 9.8-7.9 3-2.5 5.9-5 8.6-7.7.3-.3.6-.5.9-.8.7-.6 1.8-1.5 3.1-2.4 2-1.7 4.4-3.9 6.5-5.8 1.7-1.7 3.4-3.9 3.9-4.8M509.9 225.8c1-1.6 2.5-3 3.8-4.4 4.3-4.4 9.1-8.4 14-12.2 3.2-2.5 6.5-4.9 9.8-7.3 3-2.3 5.9-4.6 8.6-7.1.3-.2.6-.5.8-.7.6-.5 1.7-1.3 3-2.3 2-1.5 4.5-3.5 6.6-5.3 1.9-1.7 3.6-3.6 3.8-4.6M513 228.4c9.9-12.4 25.2-19.3 37.1-29.7 1.9-1.7 13.3-8.6 13.4-11.4M516.8 232c5.2-5.7 10.5-9.8 16.9-14.3 2.6-1.8 6.1-4.1 8.7-5.8 3-2.1 6.7-4.5 9.4-6.7.3-.2.6-.5 1-.8.9-.7 3.4-2.2 5.7-3.8 3.5-2.4 7.1-4.9 7.6-6.5M520.7 235.7c5.6-5.4 9.9-8.8 16.5-13.3 2.2-1.5 6.1-4 8.3-5.5 2.7-1.8 6.8-4.2 9.2-6.1.3-.2.6-.5.9-.7 1-.7 3.5-2.1 5.5-3.4 3.5-2.2 6.7-4.1 7.6-5.7M524.5 239.4c5.9-5.1 9.4-7.7 16-12.2 1.8-1.2 6.2-3.9 8-5.1 2.3-1.5 6.9-4 8.9-5.5l.9-.6c1.1-.7 3.6-2 5.4-3 3.4-2 6.3-3.3 7.6-4.9M528.3 243.1c6.3-4.8 8.9-6.7 15.5-11.2 1.4-1 6.2-3.8 7.7-4.7 2-1.2 7-3.7 8.7-4.9.2-.2.5-.3.9-.5 1.3-.7 3.8-1.8 5.3-2.6 3.3-1.8 5.8-2.5 7.6-4M532.1 246.7c6.6-4.5 8.3-5.7 15.1-10.2 1-.7 6.3-3.8 7.3-4.4 1.7-1 7.1-3.5 8.4-4.3.2-.1.5-.3.9-.5 1.4-.7 3.9-1.7 5.1-2.2 3.3-1.5 5.4-1.8 7.5-3.2M535.9 250.4c7-4.2 7.8-4.7 14.6-9.2.6-.4 6.3-3.7 7-4 1.4-.7 7.2-3.2 8.2-3.8 1.1-.6 4.7-1.8 5.8-2.2 3.3-1.2 5-1 7.5-2.4M536.5 255c6.9-3.5 8.3-4.5 15.3-7.6 1-.4 6.3-3 7.3-3.3 1.1-.3 3.7-1.3 5.8-2.1 1.2-.5 2.2-.9 2.7-1.1.7-.3 2-.7 3.2-1.1 1.1-.3 2.1-.7 2.8-.8 3.2-.9 5.3-.8 7.7-2M537 259.7c6.7-2.8 9.1-3.9 16-6 1.4-.4 6.2-2.4 7.6-2.7 1.3-.2 3.8-1.1 6-1.7 1.2-.4 2.2-.8 2.8-1 .8-.3 2-.7 3.3-1 1-.3 2.1-.5 2.9-.7 3.2-.7 5.6-.6 7.9-1.6M537.6 264.3c6.6-2.1 10-3 16.8-4.5 1.8-.4 6.1-1.8 7.9-2 1.6-.2 4-.8 6.2-1.4 1.2-.3 2.2-.6 2.9-.8.9-.3 2.1-.6 3.4-.9 1-.2 2.1-.4 2.9-.5 3.2-.5 5.9-.4 8.1-1.1M538.1 269c6.5-1.4 10.9-2 17.5-2.9 2.2-.3 6.1-1.2 8.3-1.3 1.8-.1 4.2-.6 6.4-1 1.1-.2 2.2-.5 3-.7 1-.3 2.2-.6 3.5-.8.9-.2 2-.3 3-.4 3.1-.3 6.2-.2 8.3-.7M538.7 273.6c6.4-.7 11.8-.9 18.2-1.3 2.6-.2 6-.6 8.6-.7 2-.1 4.3-.3 6.6-.6 1.1-.1 2.1-.4 3.1-.6 1.1-.2 2.3-.5 3.6-.7.9-.1 2-.2 3.1-.2 3-.1 6.5-.1 8.5-.3M539.3 278.2c11.5 0 23.1.6 34.6 0 2.3-.1 4.5-.9 6.8-1 2.7-.2 9.1.1 11.8.1M538 281.4c4.1.3 8.2.3 11.6.5 8.4.5 15.4 1.3 23.3 1.4 2.3 0 4.5-.6 6.9-.5 1.7 0 5.1.4 7.6.6 2.1.2 4.7.9 6.1.9M536.8 284.6c4.4.7 8.9.6 11.7.9 9 1 15.4 2.3 23.4 2.8 2.3.1 4.5-.2 7-.1 1.9.1 6.1.9 8.6 1.3 2.1.3 5.3 1.8 6.9 1.7M535.6 287.7c4.7 1 9.5 1 11.9 1.3 9.7 1.5 15.3 3.3 23.5 4.3 2.2.3 4.5.1 7.1.4 2.2.2 7.2 1.4 9.7 2 2 .5 5.9 2.7 7.7 2.5M534.3 290.9c5 1.4 10.1 1.3 12 1.7 10.3 2.1 15.3 4.3 23.7 5.8 2.2.4 4.5.5 7.2.9 2.4.4 8.3 1.9 10.8 2.7 2 .6 6.5 3.5 8.5 3.4M533.1 294c5.3 1.7 10.7 1.7 12.2 2.1 10.9 2.8 15.2 5.3 23.8 7.2 2.1.5 4.5.8 7.3 1.4 2.6.5 9.3 2.4 11.9 3.3 2 .7 7.1 4.4 9.2 4.2M531.9 297.2c5.6 2.1 11.3 2.2 12.3 2.5 14.1 4.9 16.6 7.3 31.3 10.5 2.8.6 10.4 2.9 13 4 2 .8 7.7 5.2 10 5"/>
  </g>
</svg>