<svg width="1440" height="139" viewBox="0 0 1440 139" fill="none" xmlns="http://www.w3.org/2000/svg">
<path fill-rule="evenodd" clip-rule="evenodd" d="M0 2L60 18.3C120 34.6 240 67.3 360 73.8C480 80.3 600 60.7 720 67.3C840 73.8 960 106.5 1080 122.8C1200 139.1 1320 139.1 1380 139.1H1440H0V2Z" fill="white"/>
<path d="M1440.1 138.6H1380.1C1320.1 138.6 1200.1 138.6 1080.1 122.3C960.1 106 840.1 73.3 720.1 66.8C600.1 60.2 480.1 79.8 360.1 73.3C240.1 66.8 120.1 34.1 60.1 17.8L0.0999756 1.5C-0.486941 1.28527 -0.764371 1.16864 -1 1" stroke="#060606" stroke-width="3" stroke-miterlimit="10"/>
</svg>
