<svg width="1440" height="256" viewBox="0 0 1440 256" fill="none" xmlns="http://www.w3.org/2000/svg">
<path opacity="0.1" fill-rule="evenodd" clip-rule="evenodd" d="M1440 118.7L1400.4 130.3C1359.6 141.9 1280.4 165 1200 174.3C1119.6 183.6 1040.4 178.9 960 162.7C879.6 146.5 800.4 118.7 720 111.7C639.6 104.8 560.4 118.6 480 118.6C399.6 118.6 320.4 104.7 240 111.7C159.6 118.6 80.4 146.4 39.6 160.3L0 174.3V0H1440V118.7Z" fill="#C0AA80"/>
<path fill-rule="evenodd" clip-rule="evenodd" d="M1440 256L1380 234.7C1320 213.4 1200 170.7 1080 162.2C960 153.7 840 179.3 720 170.7C600 162.2 480 119.5 360 98.2C240 76.8 120 76.8 60 76.8H0V0H60C120 0 240 0 360 0C480 0 600 0 720 0C840 0 960 0 1080 0C1200 0 1320 0 1380 0H1440V256Z" fill="white"/>
</svg>
