<svg width="1440" height="217" viewBox="0 0 1440 217" fill="none" xmlns="http://www.w3.org/2000/svg">
<path fill-rule="evenodd" clip-rule="evenodd" d="M1440 216L1400.4 192C1359.6 168 1280.4 120 1200 114C1119.6 108 1040.4 144 960 144C879.6 144 800.4 108 720 96C639.6 84 560.4 96 480 96C399.6 96 320.4 84 240 66C159.6 48 80.4 24 39.6 12L0 0H1440V216Z" fill="#F7F4EA"/>
<path d="M1440.1 216L1400.5 192C1359.7 168 1280.5 120 1200.1 114C1119.7 108 1040.5 144 960.1 144C879.7 144 800.5 108 720.1 96C639.7 84 560.5 96 480.1 96C399.7 96 320.5 84 240.1 66C159.7 48 80.5 24 39.7 12L0.0999756 0" stroke="#060606" stroke-width="3" stroke-miterlimit="10"/>
</svg>
